# MagicaVoxel @ Ephtracy

# group
g torre

# material
mtllib torre.mtl
usemtl palette

# normals
vn -1 0 0
vn 1 0 0
vn 0 0 1
vn 0 0 -1
vn 0 -1 0
vn 0 1 0

# texcoords
vt 0.173828 0.5
vt 0.341797 0.5
vt 0.748047 0.5

# verts
v -10 0 4.5
v -10 0 -4.5
v -10 17 4.5
v -10 17 3.5
v -10 17 -3.5
v -10 17 -4.5
v -10 18 3.5
v -10 18 -3.5
v 9 12 3.5
v 9 12 1.5
v 9 12 0.5
v 9 12 -0.5
v 9 12 -1.5
v 9 12 -2.5
v 9 12 -3.5
v 9 13 3.5
v 9 13 -1.5
v 9 13 -2.5
v 9 13 -3.5
v 9 14 3.5
v 9 14 -1.5
v 9 14 -2.5
v 9 14 -3.5
v 9 16 3.5
v 9 16 -1.5
v 9 16 -2.5
v 9 16 -3.5
v 9 17 3.5
v 9 17 -3.5
v 10 0 4.5
v 10 0 3.5
v 10 0 2.5
v 10 0 1.5
v 10 0 0.5
v 10 0 -0.5
v 10 0 -1.5
v 10 0 -2.5
v 10 0 -3.5
v 10 0 -4.5
v 10 1 2.5
v 10 1 1.5
v 10 1 0.5
v 10 1 -0.5
v 10 1 -1.5
v 10 1 -2.5
v 10 2 2.5
v 10 2 1.5
v 10 2 0.5
v 10 2 -0.5
v 10 2 -1.5
v 10 2 -2.5
v 10 3 2.5
v 10 3 1.5
v 10 3 0.5
v 10 3 -0.5
v 10 3 -1.5
v 10 3 -2.5
v 10 4 2.5
v 10 4 1.5
v 10 4 0.5
v 10 4 -0.5
v 10 4 -1.5
v 10 4 -2.5
v 10 5 2.5
v 10 5 1.5
v 10 5 0.5
v 10 5 -0.5
v 10 5 -1.5
v 10 5 -2.5
v 10 6 2.5
v 10 6 1.5
v 10 6 0.5
v 10 6 -0.5
v 10 6 -1.5
v 10 6 -2.5
v 10 7 2.5
v 10 7 1.5
v 10 7 0.5
v 10 7 -0.5
v 10 7 -1.5
v 10 7 -2.5
v 10 8 2.5
v 10 8 1.5
v 10 8 0.5
v 10 8 -0.5
v 10 8 -1.5
v 10 8 -2.5
v 10 9 2.5
v 10 9 1.5
v 10 9 0.5
v 10 9 -0.5
v 10 9 -1.5
v 10 9 -2.5
v 10 10 2.5
v 10 10 1.5
v 10 10 0.5
v 10 10 -0.5
v 10 10 -1.5
v 10 10 -2.5
v 10 11 2.5
v 10 11 1.5
v 10 11 0.5
v 10 11 -0.5
v 10 11 -1.5
v 10 11 -2.5
v 10 12 3.5
v 10 12 1.5
v 10 12 0.5
v 10 12 -0.5
v 10 12 -1.5
v 10 12 -3.5
v 10 13 3.5
v 10 13 -3.5
v 10 14 3.5
v 10 14 -3.5
v 10 17 4.5
v 10 17 3.5
v 10 17 -3.5
v 10 17 -4.5
v 10 18 3.5
v 10 18 -3.5
v -10 0 4.5
v -10 17 4.5
v -8 0 4.5
v -8 15 4.5
v -6 0 4.5
v -6 13 4.5
v 6 0 4.5
v 6 13 4.5
v 8 0 4.5
v 8 15 4.5
v 10 0 4.5
v 10 17 4.5
v -10 17 3.5
v -10 18 3.5
v 7 17 3.5
v 7 18 3.5
v 9 17 3.5
v 9 18 3.5
v 10 17 3.5
v 10 18 3.5
v 9 12 -3.5
v 9 13 -3.5
v 9 14 -3.5
v 9 16 -3.5
v 9 17 -3.5
v 10 12 -3.5
v 10 13 -3.5
v 10 14 -3.5
v 10 17 -3.5
v 9 12 3.5
v 9 13 3.5
v 9 14 3.5
v 9 16 3.5
v 9 17 3.5
v 10 12 3.5
v 10 13 3.5
v 10 14 3.5
v 10 17 3.5
v -10 17 -3.5
v -10 18 -3.5
v 7 17 -3.5
v 7 18 -3.5
v 9 17 -3.5
v 9 18 -3.5
v 10 17 -3.5
v 10 18 -3.5
v -10 0 -4.5
v -10 17 -4.5
v -8 0 -4.5
v -8 15 -4.5
v -6 0 -4.5
v -6 13 -4.5
v 6 0 -4.5
v 6 13 -4.5
v 8 0 -4.5
v 8 15 -4.5
v 10 0 -4.5
v 10 17 -4.5
v -10 0 4.5
v -8 0 4.5
v -6 0 4.5
v 6 0 4.5
v 8 0 4.5
v 10 0 4.5
v -8 0 3.5
v -6 0 3.5
v 6 0 3.5
v 8 0 3.5
v 9 0 3.5
v 10 0 3.5
v 9 0 2.5
v 10 0 2.5
v 9 0 1.5
v 10 0 1.5
v 9 0 0.5
v 10 0 0.5
v 9 0 -0.5
v 10 0 -0.5
v 9 0 -1.5
v 10 0 -1.5
v 9 0 -2.5
v 10 0 -2.5
v -8 0 -3.5
v -6 0 -3.5
v 6 0 -3.5
v 8 0 -3.5
v 9 0 -3.5
v 10 0 -3.5
v -10 0 -4.5
v -8 0 -4.5
v -6 0 -4.5
v 6 0 -4.5
v 8 0 -4.5
v 10 0 -4.5
v 9 13 3.5
v 10 13 3.5
v 9 13 -1.5
v 9 13 -2.5
v 9 13 -3.5
v 10 13 -3.5
v 9 17 3.5
v 10 17 3.5
v 9 17 -3.5
v 10 17 -3.5
v 9 12 3.5
v 10 12 3.5
v 9 12 1.5
v 10 12 1.5
v 9 12 0.5
v 10 12 0.5
v 9 12 -0.5
v 10 12 -0.5
v 9 12 -1.5
v 10 12 -1.5
v 9 12 -2.5
v 9 12 -3.5
v 10 12 -3.5
v 9 14 3.5
v 10 14 3.5
v 9 14 -1.5
v 9 14 -2.5
v 9 14 -3.5
v 10 14 -3.5
v -10 17 4.5
v 10 17 4.5
v -10 17 3.5
v 7 17 3.5
v 9 17 3.5
v 10 17 3.5
v -10 17 -3.5
v 7 17 -3.5
v 9 17 -3.5
v 10 17 -3.5
v -10 17 -4.5
v 10 17 -4.5
v -10 18 3.5
v 7 18 3.5
v 9 18 3.5
v 10 18 3.5
v -10 18 -3.5
v 7 18 -3.5
v 9 18 -3.5
v 10 18 -3.5

# faces
f 3/1/1 2/1/1 1/1/1
f 4/1/1 2/1/1 3/1/1
f 5/1/1 2/1/1 4/1/1
f 6/1/1 2/1/1 5/1/1
f 7/1/1 5/1/1 4/1/1
f 8/1/1 5/1/1 7/1/1
f 9/2/2 10/2/2 16/2/2
f 10/2/2 11/2/2 16/2/2
f 11/2/2 12/2/2 16/2/2
f 12/2/2 13/2/2 16/2/2
f 13/3/2 14/3/2 17/3/2
f 16/2/2 13/2/2 17/2/2
f 14/2/2 15/2/2 18/2/2
f 17/3/2 14/3/2 18/3/2
f 18/2/2 15/2/2 19/2/2
f 20/1/2 21/1/2 24/1/2
f 21/3/2 22/3/2 25/3/2
f 24/1/2 21/1/2 25/1/2
f 22/1/2 23/1/2 26/1/2
f 25/3/2 22/3/2 26/3/2
f 26/1/2 23/1/2 27/1/2
f 24/2/2 25/2/2 28/2/2
f 25/2/2 26/2/2 28/2/2
f 26/2/2 27/2/2 28/2/2
f 28/2/2 27/2/2 29/2/2
f 31/2/2 32/2/2 40/2/2
f 32/1/2 33/1/2 40/1/2
f 33/2/2 34/2/2 41/2/2
f 40/1/2 33/1/2 41/1/2
f 34/1/2 35/1/2 42/1/2
f 41/2/2 34/2/2 42/2/2
f 35/2/2 36/2/2 43/2/2
f 42/1/2 35/1/2 43/1/2
f 36/1/2 37/1/2 44/1/2
f 43/2/2 36/2/2 44/2/2
f 37/2/2 38/2/2 45/2/2
f 44/1/2 37/1/2 45/1/2
f 31/2/2 40/2/2 46/2/2
f 40/2/2 41/2/2 46/2/2
f 41/1/2 42/1/2 47/1/2
f 46/2/2 41/2/2 47/2/2
f 42/2/2 43/2/2 48/2/2
f 47/1/2 42/1/2 48/1/2
f 43/1/2 44/1/2 49/1/2
f 48/2/2 43/2/2 49/2/2
f 44/2/2 45/2/2 50/2/2
f 49/1/2 44/1/2 50/1/2
f 45/2/2 38/2/2 51/2/2
f 50/2/2 45/2/2 51/2/2
f 31/2/2 46/2/2 52/2/2
f 46/1/2 47/1/2 52/1/2
f 47/2/2 48/2/2 53/2/2
f 52/1/2 47/1/2 53/1/2
f 48/1/2 49/1/2 54/1/2
f 53/2/2 48/2/2 54/2/2
f 49/2/2 50/2/2 55/2/2
f 54/1/2 49/1/2 55/1/2
f 50/1/2 51/1/2 56/1/2
f 55/2/2 50/2/2 56/2/2
f 51/2/2 38/2/2 57/2/2
f 56/1/2 51/1/2 57/1/2
f 31/2/2 52/2/2 58/2/2
f 52/2/2 53/2/2 58/2/2
f 53/1/2 54/1/2 59/1/2
f 58/2/2 53/2/2 59/2/2
f 54/2/2 55/2/2 60/2/2
f 59/1/2 54/1/2 60/1/2
f 55/1/2 56/1/2 61/1/2
f 60/2/2 55/2/2 61/2/2
f 56/2/2 57/2/2 62/2/2
f 61/1/2 56/1/2 62/1/2
f 57/2/2 38/2/2 63/2/2
f 62/2/2 57/2/2 63/2/2
f 31/2/2 58/2/2 64/2/2
f 58/1/2 59/1/2 64/1/2
f 59/2/2 60/2/2 65/2/2
f 64/1/2 59/1/2 65/1/2
f 60/1/2 61/1/2 66/1/2
f 65/2/2 60/2/2 66/2/2
f 61/2/2 62/2/2 67/2/2
f 66/1/2 61/1/2 67/1/2
f 62/1/2 63/1/2 68/1/2
f 67/2/2 62/2/2 68/2/2
f 63/2/2 38/2/2 69/2/2
f 68/1/2 63/1/2 69/1/2
f 64/2/2 65/2/2 70/2/2
f 31/2/2 64/2/2 70/2/2
f 65/1/2 66/1/2 71/1/2
f 70/2/2 65/2/2 71/2/2
f 66/2/2 67/2/2 72/2/2
f 71/1/2 66/1/2 72/1/2
f 67/1/2 68/1/2 73/1/2
f 72/2/2 67/2/2 73/2/2
f 68/2/2 69/2/2 74/2/2
f 73/1/2 68/1/2 74/1/2
f 69/2/2 38/2/2 75/2/2
f 74/2/2 69/2/2 75/2/2
f 31/2/2 70/2/2 76/2/2
f 70/1/2 71/1/2 76/1/2
f 71/2/2 72/2/2 77/2/2
f 76/1/2 71/1/2 77/1/2
f 72/1/2 73/1/2 78/1/2
f 77/2/2 72/2/2 78/2/2
f 73/2/2 74/2/2 79/2/2
f 78/1/2 73/1/2 79/1/2
f 74/1/2 75/1/2 80/1/2
f 79/2/2 74/2/2 80/2/2
f 75/2/2 38/2/2 81/2/2
f 80/1/2 75/1/2 81/1/2
f 31/2/2 76/2/2 82/2/2
f 76/2/2 77/2/2 82/2/2
f 77/1/2 78/1/2 83/1/2
f 82/2/2 77/2/2 83/2/2
f 78/2/2 79/2/2 84/2/2
f 83/1/2 78/1/2 84/1/2
f 79/1/2 80/1/2 85/1/2
f 84/2/2 79/2/2 85/2/2
f 80/2/2 81/2/2 86/2/2
f 85/1/2 80/1/2 86/1/2
f 81/2/2 38/2/2 87/2/2
f 86/2/2 81/2/2 87/2/2
f 31/2/2 82/2/2 88/2/2
f 82/1/2 83/1/2 88/1/2
f 83/2/2 84/2/2 89/2/2
f 88/1/2 83/1/2 89/1/2
f 84/1/2 85/1/2 90/1/2
f 89/2/2 84/2/2 90/2/2
f 85/2/2 86/2/2 91/2/2
f 90/1/2 85/1/2 91/1/2
f 86/1/2 87/1/2 92/1/2
f 91/2/2 86/2/2 92/2/2
f 87/2/2 38/2/2 93/2/2
f 92/1/2 87/1/2 93/1/2
f 31/2/2 88/2/2 94/2/2
f 88/2/2 89/2/2 94/2/2
f 89/1/2 90/1/2 95/1/2
f 94/2/2 89/2/2 95/2/2
f 90/2/2 91/2/2 96/2/2
f 95/1/2 90/1/2 96/1/2
f 91/1/2 92/1/2 97/1/2
f 96/2/2 91/2/2 97/2/2
f 92/2/2 93/2/2 98/2/2
f 97/1/2 92/1/2 98/1/2
f 93/2/2 38/2/2 99/2/2
f 98/2/2 93/2/2 99/2/2
f 31/2/2 94/2/2 100/2/2
f 94/1/2 95/1/2 100/1/2
f 95/2/2 96/2/2 101/2/2
f 100/1/2 95/1/2 101/1/2
f 96/1/2 97/1/2 102/1/2
f 101/2/2 96/2/2 102/2/2
f 97/2/2 98/2/2 103/2/2
f 102/1/2 97/1/2 103/1/2
f 98/1/2 99/1/2 104/1/2
f 103/2/2 98/2/2 104/2/2
f 99/2/2 38/2/2 105/2/2
f 104/1/2 99/1/2 105/1/2
f 30/1/2 31/1/2 106/1/2
f 31/2/2 100/2/2 106/2/2
f 100/2/2 101/2/2 106/2/2
f 101/1/2 102/1/2 107/1/2
f 106/2/2 101/2/2 107/2/2
f 102/2/2 103/2/2 108/2/2
f 107/1/2 102/1/2 108/1/2
f 103/1/2 104/1/2 109/1/2
f 108/2/2 103/2/2 109/2/2
f 104/2/2 105/2/2 110/2/2
f 109/1/2 104/1/2 110/1/2
f 105/2/2 38/2/2 111/2/2
f 110/2/2 105/2/2 111/2/2
f 38/1/2 39/1/2 111/1/2
f 30/1/2 106/1/2 112/1/2
f 111/1/2 39/1/2 113/1/2
f 30/1/2 112/1/2 114/1/2
f 112/1/2 113/1/2 114/1/2
f 113/1/2 39/1/2 115/1/2
f 114/1/2 113/1/2 115/1/2
f 30/1/2 114/1/2 116/1/2
f 116/1/2 114/1/2 117/1/2
f 115/1/2 39/1/2 118/1/2
f 118/1/2 39/1/2 119/1/2
f 117/1/2 118/1/2 120/1/2
f 120/1/2 118/1/2 121/1/2
f 124/1/3 123/1/3 122/1/3
f 125/1/3 123/1/3 124/1/3
f 126/2/3 125/2/3 124/2/3
f 127/2/3 125/2/3 126/2/3
f 128/1/3 127/1/3 126/1/3
f 129/2/3 125/2/3 127/2/3
f 129/1/3 127/1/3 128/1/3
f 130/2/3 129/2/3 128/2/3
f 131/1/3 123/1/3 125/1/3
f 131/2/3 129/2/3 130/2/3
f 131/2/3 125/2/3 129/2/3
f 132/1/3 131/1/3 130/1/3
f 133/1/3 123/1/3 131/1/3
f 133/1/3 131/1/3 132/1/3
f 136/1/3 135/1/3 134/1/3
f 137/1/3 135/1/3 136/1/3
f 138/2/3 137/2/3 136/2/3
f 139/2/3 137/2/3 138/2/3
f 140/1/3 139/1/3 138/1/3
f 141/1/3 139/1/3 140/1/3
f 147/1/3 143/1/3 142/1/3
f 148/1/3 143/1/3 147/1/3
f 149/1/3 146/1/3 145/1/3
f 149/1/3 145/1/3 144/1/3
f 150/1/3 146/1/3 149/1/3
f 151/1/4 152/1/4 156/1/4
f 156/1/4 152/1/4 157/1/4
f 154/1/4 155/1/4 158/1/4
f 153/1/4 154/1/4 158/1/4
f 158/1/4 155/1/4 159/1/4
f 160/1/4 161/1/4 162/1/4
f 162/1/4 161/1/4 163/1/4
f 162/2/4 163/2/4 164/2/4
f 164/2/4 163/2/4 165/2/4
f 164/1/4 165/1/4 166/1/4
f 166/1/4 165/1/4 167/1/4
f 168/1/4 169/1/4 170/1/4
f 170/1/4 169/1/4 171/1/4
f 170/2/4 171/2/4 172/2/4
f 172/2/4 171/2/4 173/2/4
f 172/1/4 173/1/4 174/1/4
f 173/2/4 171/2/4 175/2/4
f 174/1/4 173/1/4 175/1/4
f 174/2/4 175/2/4 176/2/4
f 171/1/4 169/1/4 177/1/4
f 176/2/4 175/2/4 177/2/4
f 175/2/4 171/2/4 177/2/4
f 176/1/4 177/1/4 178/1/4
f 177/1/4 169/1/4 179/1/4
f 178/1/4 177/1/4 179/1/4
f 186/1/5 181/1/5 180/1/5
f 186/2/5 182/2/5 181/2/5
f 187/1/5 183/1/5 182/1/5
f 187/2/5 182/2/5 186/2/5
f 188/2/5 184/2/5 183/2/5
f 188/1/5 183/1/5 187/1/5
f 189/1/5 185/1/5 184/1/5
f 189/2/5 184/2/5 188/2/5
f 190/1/5 185/1/5 189/1/5
f 191/1/5 185/1/5 190/1/5
f 192/1/5 188/1/5 187/1/5
f 192/1/5 187/1/5 186/1/5
f 192/2/5 191/2/5 190/2/5
f 192/1/5 190/1/5 189/1/5
f 192/1/5 189/1/5 188/1/5
f 193/2/5 191/2/5 192/2/5
f 194/1/5 192/1/5 186/1/5
f 194/1/5 193/1/5 192/1/5
f 195/1/5 193/1/5 194/1/5
f 196/1/5 194/1/5 186/1/5
f 196/2/5 195/2/5 194/2/5
f 197/2/5 195/2/5 196/2/5
f 198/1/5 196/1/5 186/1/5
f 198/1/5 197/1/5 196/1/5
f 199/1/5 197/1/5 198/1/5
f 200/1/5 198/1/5 186/1/5
f 200/2/5 199/2/5 198/2/5
f 201/2/5 199/2/5 200/2/5
f 202/1/5 200/1/5 186/1/5
f 202/1/5 201/1/5 200/1/5
f 203/1/5 201/1/5 202/1/5
f 204/1/5 186/1/5 180/1/5
f 204/1/5 202/1/5 186/1/5
f 205/1/5 202/1/5 204/1/5
f 206/1/5 202/1/5 205/1/5
f 207/1/5 202/1/5 206/1/5
f 208/2/5 203/2/5 202/2/5
f 208/1/5 202/1/5 207/1/5
f 209/2/5 203/2/5 208/2/5
f 210/1/5 204/1/5 180/1/5
f 211/2/5 205/2/5 204/2/5
f 211/1/5 204/1/5 210/1/5
f 212/1/5 206/1/5 205/1/5
f 212/2/5 205/2/5 211/2/5
f 213/2/5 207/2/5 206/2/5
f 213/1/5 206/1/5 212/1/5
f 214/1/5 208/1/5 207/1/5
f 214/2/5 207/2/5 213/2/5
f 214/1/5 209/1/5 208/1/5
f 215/1/5 209/1/5 214/1/5
f 218/1/5 217/1/5 216/1/5
f 219/1/5 217/1/5 218/1/5
f 220/1/5 217/1/5 219/1/5
f 221/1/5 217/1/5 220/1/5
f 224/1/5 223/1/5 222/1/5
f 225/1/5 223/1/5 224/1/5
f 226/2/6 227/2/6 228/2/6
f 228/2/6 227/2/6 229/2/6
f 228/1/6 229/1/6 230/1/6
f 230/1/6 229/1/6 231/1/6
f 230/2/6 231/2/6 232/2/6
f 232/2/6 231/2/6 233/2/6
f 232/1/6 233/1/6 234/1/6
f 234/1/6 233/1/6 235/1/6
f 234/2/6 235/2/6 236/2/6
f 236/2/6 235/2/6 237/2/6
f 237/2/6 235/2/6 238/2/6
f 239/1/6 240/1/6 241/1/6
f 241/1/6 240/1/6 242/1/6
f 242/1/6 240/1/6 243/1/6
f 243/1/6 240/1/6 244/1/6
f 245/1/6 246/1/6 247/1/6
f 247/1/6 246/1/6 248/1/6
f 248/1/6 246/1/6 249/1/6
f 249/1/6 246/1/6 250/1/6
f 251/1/6 252/1/6 255/1/6
f 253/1/6 254/1/6 255/1/6
f 252/1/6 253/1/6 255/1/6
f 255/1/6 254/1/6 256/1/6
f 257/1/6 258/1/6 261/1/6
f 258/2/6 259/2/6 262/2/6
f 261/1/6 258/1/6 262/1/6
f 259/1/6 260/1/6 263/1/6
f 262/2/6 259/2/6 263/2/6
f 263/1/6 260/1/6 264/1/6
