# MagicaVoxel @ Ephtracy

# group
g quadro3

# material
mtllib quadro3.mtl
usemtl palette

# normals
vn -1 0 0
vn 1 0 0
vn 0 0 1
vn 0 0 -1
vn 0 -1 0
vn 0 1 0

# texcoords
vt 0.0605469 0.5
vt 0.541016 0.5
vt 0.810547 0.5
vt 0.990234 0.5

# verts
v -3 0 1
v -3 0 -1
v -3 9 1
v -3 9 -1
v 2 1 1
v 2 1 -0
v 2 8 1
v 2 8 -0
v -2 1 1
v -2 1 -0
v -2 8 1
v -2 8 -0
v 3 0 1
v 3 0 -1
v 3 9 1
v 3 9 -1
v -3 0 1
v -3 9 1
v -2 1 1
v -2 8 1
v 2 1 1
v 2 8 1
v 3 0 1
v 3 9 1
v -2 1 -0
v -2 8 -0
v -1 1 -0
v -1 4 -0
v -1 6 -0
v 1 1 -0
v 1 4 -0
v 1 6 -0
v 2 1 -0
v 2 8 -0
v -3 0 -1
v -3 9 -1
v -2 1 -1
v -2 8 -1
v -1 1 -1
v -1 4 -1
v -1 6 -1
v 1 1 -1
v 1 4 -1
v 1 6 -1
v 2 1 -1
v 2 8 -1
v 3 0 -1
v 3 9 -1
v -3 0 1
v 3 0 1
v -3 0 -1
v 3 0 -1
v -2 8 1
v 2 8 1
v -2 8 -0
v 2 8 -0
v -2 1 1
v 2 1 1
v -2 1 -0
v -1 1 -0
v 1 1 -0
v 2 1 -0
v -3 9 1
v 3 9 1
v -3 9 -1
v 3 9 -1

# faces
f 3/2/1 2/2/1 1/2/1
f 4/2/1 2/2/1 3/2/1
f 7/2/1 6/2/1 5/2/1
f 8/2/1 6/2/1 7/2/1
f 9/2/2 10/2/2 11/2/2
f 11/2/2 10/2/2 12/2/2
f 13/2/2 14/2/2 15/2/2
f 15/2/2 14/2/2 16/2/2
f 19/2/3 18/2/3 17/2/3
f 20/2/3 18/2/3 19/2/3
f 21/2/3 19/2/3 17/2/3
f 22/2/3 18/2/3 20/2/3
f 23/2/3 21/2/3 17/2/3
f 23/2/3 22/2/3 21/2/3
f 24/2/3 18/2/3 22/2/3
f 24/2/3 22/2/3 23/2/3
f 27/4/3 26/4/3 25/4/3
f 28/4/3 26/4/3 27/4/3
f 29/4/3 26/4/3 28/4/3
f 30/3/3 28/3/3 27/3/3
f 31/1/3 29/1/3 28/1/3
f 31/3/3 28/3/3 30/3/3
f 32/4/3 26/4/3 29/4/3
f 32/1/3 29/1/3 31/1/3
f 33/4/3 31/4/3 30/4/3
f 33/4/3 32/4/3 31/4/3
f 34/4/3 26/4/3 32/4/3
f 34/4/3 32/4/3 33/4/3
f 35/2/4 36/2/4 37/2/4
f 37/2/4 36/2/4 38/2/4
f 35/2/4 37/2/4 39/2/4
f 37/4/4 38/4/4 39/4/4
f 39/4/4 38/4/4 40/4/4
f 40/4/4 38/4/4 41/4/4
f 35/2/4 39/2/4 42/2/4
f 39/3/4 40/3/4 42/3/4
f 40/1/4 41/1/4 43/1/4
f 42/3/4 40/3/4 43/3/4
f 41/4/4 38/4/4 44/4/4
f 43/1/4 41/1/4 44/1/4
f 42/4/4 43/4/4 45/4/4
f 35/2/4 42/2/4 45/2/4
f 43/4/4 44/4/4 45/4/4
f 38/2/4 36/2/4 46/2/4
f 45/4/4 44/4/4 46/4/4
f 44/4/4 38/4/4 46/4/4
f 35/2/4 45/2/4 47/2/4
f 45/2/4 46/2/4 47/2/4
f 46/2/4 36/2/4 48/2/4
f 47/2/4 46/2/4 48/2/4
f 51/2/5 50/2/5 49/2/5
f 52/2/5 50/2/5 51/2/5
f 55/2/5 54/2/5 53/2/5
f 56/2/5 54/2/5 55/2/5
f 57/2/6 58/2/6 59/2/6
f 59/2/6 58/2/6 60/2/6
f 60/2/6 58/2/6 61/2/6
f 61/2/6 58/2/6 62/2/6
f 63/2/6 64/2/6 65/2/6
f 65/2/6 64/2/6 66/2/6
