# MagicaVoxel @ Ephtracy

# group
g wall_room

# material
mtllib wall_room.mtl
usemtl palette

# normals
vn -1 0 0
vn 1 0 0
vn 0 0 1
vn 0 0 -1
vn 0 -1 0
vn 0 1 0

# texcoords
vt 0.541016 0.5
vt 0.806641 0.5
vt 0.810547 0.5
vt 0.978516 0.5

# verts
v -20 0 0.5
v -20 0 -1.5
v -20 3 0.5
v -20 3 -0.5
v -20 17 0.5
v -20 17 -0.5
v -20 18 1.5
v -20 18 0.5
v -20 19 1.5
v -20 19 -0.5
v -20 19 -1.5
v -20 56 -0.5
v -20 56 -1.5
v -20 58 0.5
v -20 58 -0.5
v -20 58 -1.5
v -20 59 1.5
v -20 59 0.5
v -20 60 1.5
v -20 60 -1.5
v -19 4 0.5
v -19 4 -0.5
v -19 16 0.5
v -19 16 -0.5
v -2 5 0.5
v -2 5 -0.5
v -2 15 0.5
v -2 15 -0.5
v 1 4 0.5
v 1 4 -0.5
v 1 16 0.5
v 1 16 -0.5
v 18 5 0.5
v 18 5 -0.5
v 18 15 0.5
v 18 15 -0.5
v -18 5 0.5
v -18 5 -0.5
v -18 15 0.5
v -18 15 -0.5
v -1 4 0.5
v -1 4 -0.5
v -1 16 0.5
v -1 16 -0.5
v 2 5 0.5
v 2 5 -0.5
v 2 15 0.5
v 2 15 -0.5
v 19 4 0.5
v 19 4 -0.5
v 19 16 0.5
v 19 16 -0.5
v 20 0 0.5
v 20 0 -1.5
v 20 3 0.5
v 20 3 -0.5
v 20 17 0.5
v 20 17 -0.5
v 20 18 1.5
v 20 18 0.5
v 20 19 1.5
v 20 19 -0.5
v 20 19 -1.5
v 20 58 0.5
v 20 58 -0.5
v 20 58 -1.5
v 20 59 1.5
v 20 59 0.5
v 20 60 1.5
v 20 60 -1.5
v -20 18 1.5
v -20 19 1.5
v -20 59 1.5
v -20 60 1.5
v 20 18 1.5
v 20 19 1.5
v 20 59 1.5
v 20 60 1.5
v -20 0 0.5
v -20 3 0.5
v -20 17 0.5
v -20 18 0.5
v -20 58 0.5
v -20 59 0.5
v -19 4 0.5
v -19 16 0.5
v -18 5 0.5
v -18 15 0.5
v -2 5 0.5
v -2 15 0.5
v -1 4 0.5
v -1 16 0.5
v 1 4 0.5
v 1 16 0.5
v 2 5 0.5
v 2 15 0.5
v 18 5 0.5
v 18 15 0.5
v 19 4 0.5
v 19 16 0.5
v 20 0 0.5
v 20 3 0.5
v 20 17 0.5
v 20 18 0.5
v 20 58 0.5
v 20 59 0.5
v -20 3 -0.5
v -20 17 -0.5
v -20 19 -0.5
v -20 56 -0.5
v -20 58 -0.5
v -19 4 -0.5
v -19 16 -0.5
v -18 5 -0.5
v -18 15 -0.5
v -11 19 -0.5
v -11 56 -0.5
v -10 19 -0.5
v -10 56 -0.5
v -2 5 -0.5
v -2 15 -0.5
v -1 4 -0.5
v -1 16 -0.5
v -1 19 -0.5
v -1 56 -0.5
v 0 19 -0.5
v 0 56 -0.5
v 1 4 -0.5
v 1 16 -0.5
v 2 5 -0.5
v 2 15 -0.5
v 9 19 -0.5
v 9 56 -0.5
v 10 19 -0.5
v 10 56 -0.5
v 18 5 -0.5
v 18 15 -0.5
v 19 4 -0.5
v 19 16 -0.5
v 19 19 -0.5
v 19 56 -0.5
v 20 3 -0.5
v 20 17 -0.5
v 20 19 -0.5
v 20 58 -0.5
v -20 0 -1.5
v -20 19 -1.5
v -20 56 -1.5
v -20 58 -1.5
v -20 60 -1.5
v -11 19 -1.5
v -11 56 -1.5
v -10 19 -1.5
v -10 56 -1.5
v -1 19 -1.5
v -1 56 -1.5
v 0 19 -1.5
v 0 56 -1.5
v 9 19 -1.5
v 9 56 -1.5
v 10 19 -1.5
v 10 56 -1.5
v 19 19 -1.5
v 19 56 -1.5
v 20 0 -1.5
v 20 19 -1.5
v 20 58 -1.5
v 20 60 -1.5
v -20 0 0.5
v 20 0 0.5
v -20 0 -1.5
v 20 0 -1.5
v -19 4 0.5
v -1 4 0.5
v 1 4 0.5
v 19 4 0.5
v -19 4 -0.5
v -1 4 -0.5
v 1 4 -0.5
v 19 4 -0.5
v -18 15 0.5
v -2 15 0.5
v 2 15 0.5
v 18 15 0.5
v -18 15 -0.5
v -2 15 -0.5
v 2 15 -0.5
v 18 15 -0.5
v -20 17 0.5
v 20 17 0.5
v -20 17 -0.5
v 20 17 -0.5
v -20 18 1.5
v 20 18 1.5
v -20 18 0.5
v 20 18 0.5
v -20 58 0.5
v 20 58 0.5
v -20 58 -0.5
v 20 58 -0.5
v -20 59 1.5
v 20 59 1.5
v -20 59 0.5
v 20 59 0.5
v -20 3 0.5
v 20 3 0.5
v -20 3 -0.5
v 20 3 -0.5
v -18 5 0.5
v -2 5 0.5
v 2 5 0.5
v 18 5 0.5
v -18 5 -0.5
v -2 5 -0.5
v 2 5 -0.5
v 18 5 -0.5
v -19 16 0.5
v -1 16 0.5
v 1 16 0.5
v 19 16 0.5
v -19 16 -0.5
v -1 16 -0.5
v 1 16 -0.5
v 19 16 -0.5
v -20 19 1.5
v 20 19 1.5
v -20 19 -0.5
v -11 19 -0.5
v -10 19 -0.5
v -1 19 -0.5
v 0 19 -0.5
v 9 19 -0.5
v 10 19 -0.5
v 19 19 -0.5
v 20 19 -0.5
v -20 60 1.5
v 20 60 1.5
v -20 60 -1.5
v 20 60 -1.5

# faces
f 3/1/1 2/1/1 1/1/1
f 4/1/1 2/1/1 3/1/1
f 6/1/1 2/1/1 4/1/1
f 8/1/1 6/1/1 5/1/1
f 9/1/1 8/1/1 7/1/1
f 10/1/1 2/1/1 6/1/1
f 10/1/1 8/1/1 9/1/1
f 10/1/1 6/1/1 8/1/1
f 11/1/1 2/1/1 10/1/1
f 12/3/1 11/3/1 10/3/1
f 13/3/1 11/3/1 12/3/1
f 15/2/1 13/2/1 12/2/1
f 16/2/1 13/2/1 15/2/1
f 18/4/1 15/4/1 14/4/1
f 18/4/1 16/4/1 15/4/1
f 19/4/1 18/4/1 17/4/1
f 20/4/1 16/4/1 18/4/1
f 20/4/1 18/4/1 19/4/1
f 23/1/1 22/1/1 21/1/1
f 24/1/1 22/1/1 23/1/1
f 27/1/1 26/1/1 25/1/1
f 28/1/1 26/1/1 27/1/1
f 31/1/1 30/1/1 29/1/1
f 32/1/1 30/1/1 31/1/1
f 35/1/1 34/1/1 33/1/1
f 36/1/1 34/1/1 35/1/1
f 37/1/2 38/1/2 39/1/2
f 39/1/2 38/1/2 40/1/2
f 41/1/2 42/1/2 43/1/2
f 43/1/2 42/1/2 44/1/2
f 45/1/2 46/1/2 47/1/2
f 47/1/2 46/1/2 48/1/2
f 49/1/2 50/1/2 51/1/2
f 51/1/2 50/1/2 52/1/2
f 53/1/2 54/1/2 55/1/2
f 55/1/2 54/1/2 56/1/2
f 56/1/2 54/1/2 58/1/2
f 57/1/2 58/1/2 60/1/2
f 59/1/2 60/1/2 61/1/2
f 58/1/2 54/1/2 62/1/2
f 61/1/2 60/1/2 62/1/2
f 60/1/2 58/1/2 62/1/2
f 62/1/2 54/1/2 63/1/2
f 62/2/2 63/2/2 65/2/2
f 65/2/2 63/2/2 66/2/2
f 64/4/2 65/4/2 68/4/2
f 65/4/2 66/4/2 68/4/2
f 67/4/2 68/4/2 69/4/2
f 68/4/2 66/4/2 70/4/2
f 69/4/2 68/4/2 70/4/2
f 75/1/3 72/1/3 71/1/3
f 76/1/3 72/1/3 75/1/3
f 77/4/3 74/4/3 73/4/3
f 78/4/3 74/4/3 77/4/3
f 87/1/3 86/1/3 85/1/3
f 88/1/3 86/1/3 87/1/3
f 89/1/3 87/1/3 85/1/3
f 90/1/3 86/1/3 88/1/3
f 91/1/3 89/1/3 85/1/3
f 91/1/3 90/1/3 89/1/3
f 92/1/3 86/1/3 90/1/3
f 92/1/3 90/1/3 91/1/3
f 95/1/3 94/1/3 93/1/3
f 96/1/3 94/1/3 95/1/3
f 97/1/3 95/1/3 93/1/3
f 98/1/3 94/1/3 96/1/3
f 99/1/3 97/1/3 93/1/3
f 99/1/3 98/1/3 97/1/3
f 100/1/3 94/1/3 98/1/3
f 100/1/3 98/1/3 99/1/3
f 101/1/3 80/1/3 79/1/3
f 102/1/3 80/1/3 101/1/3
f 103/1/3 82/1/3 81/1/3
f 104/1/3 82/1/3 103/1/3
f 105/4/3 84/4/3 83/4/3
f 106/4/3 84/4/3 105/4/3
f 112/1/3 108/1/3 107/1/3
f 113/1/3 108/1/3 112/1/3
f 116/3/3 110/3/3 109/3/3
f 117/2/3 111/2/3 110/2/3
f 117/3/3 110/3/3 116/3/3
f 118/2/3 117/2/3 116/2/3
f 119/2/3 111/2/3 117/2/3
f 119/2/3 117/2/3 118/2/3
f 120/1/3 115/1/3 114/1/3
f 121/1/3 115/1/3 120/1/3
f 122/1/3 112/1/3 107/1/3
f 123/1/3 108/1/3 113/1/3
f 124/3/3 119/3/3 118/3/3
f 125/2/3 111/2/3 119/2/3
f 125/3/3 119/3/3 124/3/3
f 126/2/3 125/2/3 124/2/3
f 127/2/3 111/2/3 125/2/3
f 127/2/3 125/2/3 126/2/3
f 128/1/3 122/1/3 107/1/3
f 128/1/3 123/1/3 122/1/3
f 129/1/3 108/1/3 123/1/3
f 129/1/3 123/1/3 128/1/3
f 132/3/3 127/3/3 126/3/3
f 133/2/3 111/2/3 127/2/3
f 133/3/3 127/3/3 132/3/3
f 134/2/3 133/2/3 132/2/3
f 135/2/3 111/2/3 133/2/3
f 135/2/3 133/2/3 134/2/3
f 136/1/3 131/1/3 130/1/3
f 137/1/3 131/1/3 136/1/3
f 138/1/3 128/1/3 107/1/3
f 139/1/3 108/1/3 129/1/3
f 140/3/3 135/3/3 134/3/3
f 141/2/3 111/2/3 135/2/3
f 141/3/3 135/3/3 140/3/3
f 142/1/3 138/1/3 107/1/3
f 142/1/3 139/1/3 138/1/3
f 143/1/3 108/1/3 139/1/3
f 143/1/3 139/1/3 142/1/3
f 144/2/3 141/2/3 140/2/3
f 145/2/3 111/2/3 141/2/3
f 145/2/3 141/2/3 144/2/3
f 146/1/4 147/1/4 151/1/4
f 147/3/4 148/3/4 151/3/4
f 148/2/4 149/2/4 152/2/4
f 151/3/4 148/3/4 152/3/4
f 146/1/4 151/1/4 153/1/4
f 151/2/4 152/2/4 153/2/4
f 152/2/4 149/2/4 154/2/4
f 153/2/4 152/2/4 154/2/4
f 146/1/4 153/1/4 155/1/4
f 153/3/4 154/3/4 155/3/4
f 154/2/4 149/2/4 156/2/4
f 155/3/4 154/3/4 156/3/4
f 146/1/4 155/1/4 157/1/4
f 155/2/4 156/2/4 157/2/4
f 156/2/4 149/2/4 158/2/4
f 157/2/4 156/2/4 158/2/4
f 146/1/4 157/1/4 159/1/4
f 157/3/4 158/3/4 159/3/4
f 158/2/4 149/2/4 160/2/4
f 159/3/4 158/3/4 160/3/4
f 146/1/4 159/1/4 161/1/4
f 159/2/4 160/2/4 161/2/4
f 160/2/4 149/2/4 162/2/4
f 161/2/4 160/2/4 162/2/4
f 146/1/4 161/1/4 163/1/4
f 161/3/4 162/3/4 163/3/4
f 162/2/4 149/2/4 164/2/4
f 163/3/4 162/3/4 164/3/4
f 146/1/4 163/1/4 165/1/4
f 163/2/4 164/2/4 166/2/4
f 165/1/4 163/1/4 166/1/4
f 149/4/4 150/4/4 167/4/4
f 166/2/4 164/2/4 167/2/4
f 164/2/4 149/2/4 167/2/4
f 167/4/4 150/4/4 168/4/4
f 171/1/5 170/1/5 169/1/5
f 172/1/5 170/1/5 171/1/5
f 177/1/5 174/1/5 173/1/5
f 178/1/5 174/1/5 177/1/5
f 179/1/5 176/1/5 175/1/5
f 180/1/5 176/1/5 179/1/5
f 185/1/5 182/1/5 181/1/5
f 186/1/5 182/1/5 185/1/5
f 187/1/5 184/1/5 183/1/5
f 188/1/5 184/1/5 187/1/5
f 191/1/5 190/1/5 189/1/5
f 192/1/5 190/1/5 191/1/5
f 195/1/5 194/1/5 193/1/5
f 196/1/5 194/1/5 195/1/5
f 199/4/5 198/4/5 197/4/5
f 200/4/5 198/4/5 199/4/5
f 203/4/5 202/4/5 201/4/5
f 204/4/5 202/4/5 203/4/5
f 205/1/6 206/1/6 207/1/6
f 207/1/6 206/1/6 208/1/6
f 209/1/6 210/1/6 213/1/6
f 213/1/6 210/1/6 214/1/6
f 211/1/6 212/1/6 215/1/6
f 215/1/6 212/1/6 216/1/6
f 217/1/6 218/1/6 221/1/6
f 221/1/6 218/1/6 222/1/6
f 219/1/6 220/1/6 223/1/6
f 223/1/6 220/1/6 224/1/6
f 225/1/6 226/1/6 227/1/6
f 227/1/6 226/1/6 228/1/6
f 228/1/6 226/1/6 229/1/6
f 229/1/6 226/1/6 230/1/6
f 230/1/6 226/1/6 231/1/6
f 231/1/6 226/1/6 232/1/6
f 232/1/6 226/1/6 233/1/6
f 233/1/6 226/1/6 234/1/6
f 234/1/6 226/1/6 235/1/6
f 236/4/6 237/4/6 238/4/6
f 238/4/6 237/4/6 239/4/6
