# MagicaVoxel @ Ephtracy

# group
g quadro1

# material
mtllib quadro1.mtl
usemtl palette

# normals
vn -1 0 0
vn 1 0 0
vn 0 0 1
vn 0 0 -1
vn 0 -1 0
vn 0 1 0

# texcoords
vt 0.158203 0.5
vt 0.541016 0.5
vt 0.638672 0.5
vt 0.646484 0.5
vt 0.650391 0.5
vt 0.654297 0.5
vt 0.662109 0.5
vt 0.677734 0.5
vt 0.974609 0.5

# verts
v -11 0 1
v -11 0 -1
v -11 14 1
v -11 14 -1
v 10 1 1
v 10 1 -0
v 10 2 -0
v 10 3 -0
v 10 4 -0
v 10 8 -0
v 10 13 1
v 10 13 -0
v -10 1 1
v -10 1 -0
v -10 3 -0
v -10 4 -0
v -10 7 -0
v -10 8 -0
v -10 9 -0
v -10 10 -0
v -10 11 -0
v -10 13 1
v -10 13 -0
v 11 0 1
v 11 0 -1
v 11 14 1
v 11 14 -1
v -11 0 1
v -11 14 1
v -10 1 1
v -10 13 1
v 10 1 1
v 10 13 1
v 11 0 1
v 11 14 1
v -10 1 -0
v -10 3 -0
v -10 4 -0
v -10 7 -0
v -10 8 -0
v -10 9 -0
v -10 10 -0
v -10 11 -0
v -10 13 -0
v -9 3 -0
v -9 4 -0
v -9 7 -0
v -9 8 -0
v -9 11 -0
v -9 12 -0
v -8 1 -0
v -8 2 -0
v -8 3 -0
v -8 4 -0
v -8 6 -0
v -8 7 -0
v -8 8 -0
v -8 10 -0
v -8 11 -0
v -7 3 -0
v -7 4 -0
v -6 3 -0
v -6 4 -0
v -6 6 -0
v -6 7 -0
v -6 8 -0
v -6 9 -0
v -6 11 -0
v -6 12 -0
v -5 2 -0
v -5 3 -0
v -5 4 -0
v -5 5 -0
v -5 6 -0
v -5 7 -0
v -4 5 -0
v -4 6 -0
v -4 7 -0
v -4 9 -0
v -4 10 -0
v -4 11 -0
v -4 12 -0
v -3 2 -0
v -3 3 -0
v -2 3 -0
v -2 4 -0
v -2 5 -0
v -2 6 -0
v -2 7 -0
v -2 8 -0
v -2 10 -0
v -2 11 -0
v -1 1 -0
v -1 2 -0
v -1 3 -0
v -1 4 -0
v -1 5 -0
v -1 7 -0
v -1 8 -0
v -1 9 -0
v -1 10 -0
v -1 12 -0
v -1 13 -0
v 0 3 -0
v 0 4 -0
v 0 5 -0
v 0 6 -0
v 0 8 -0
v 0 9 -0
v 0 10 -0
v 0 11 -0
v 0 12 -0
v 1 7 -0
v 1 8 -0
v 1 10 -0
v 1 11 -0
v 2 4 -0
v 2 5 -0
v 2 6 -0
v 2 9 -0
v 2 10 -0
v 2 11 -0
v 3 5 -0
v 3 6 -0
v 3 7 -0
v 3 8 -0
v 3 9 -0
v 3 10 -0
v 3 11 -0
v 4 6 -0
v 4 7 -0
v 4 9 -0
v 5 6 -0
v 5 7 -0
v 5 8 -0
v 5 9 -0
v 5 10 -0
v 5 11 -0
v 6 2 -0
v 6 3 -0
v 6 6 -0
v 6 7 -0
v 6 8 -0
v 6 9 -0
v 6 10 -0
v 6 11 -0
v 7 2 -0
v 7 3 -0
v 7 4 -0
v 7 5 -0
v 7 6 -0
v 7 9 -0
v 7 10 -0
v 7 11 -0
v 7 12 -0
v 8 3 -0
v 8 4 -0
v 8 6 -0
v 8 7 -0
v 8 8 -0
v 8 9 -0
v 8 10 -0
v 8 11 -0
v 9 3 -0
v 9 4 -0
v 9 6 -0
v 9 9 -0
v 9 10 -0
v 9 11 -0
v 10 1 -0
v 10 2 -0
v 10 3 -0
v 10 4 -0
v 10 8 -0
v 10 13 -0
v -11 0 -1
v -11 14 -1
v -10 1 -1
v -10 3 -1
v -10 4 -1
v -10 7 -1
v -10 8 -1
v -10 9 -1
v -10 10 -1
v -10 11 -1
v -10 13 -1
v -9 3 -1
v -9 4 -1
v -9 7 -1
v -9 8 -1
v -9 11 -1
v -9 12 -1
v -8 1 -1
v -8 2 -1
v -8 3 -1
v -8 4 -1
v -8 6 -1
v -8 7 -1
v -8 8 -1
v -8 10 -1
v -8 11 -1
v -7 3 -1
v -7 4 -1
v -6 3 -1
v -6 4 -1
v -6 6 -1
v -6 7 -1
v -6 8 -1
v -6 9 -1
v -6 11 -1
v -6 12 -1
v -5 2 -1
v -5 3 -1
v -5 4 -1
v -5 5 -1
v -5 6 -1
v -5 7 -1
v -4 5 -1
v -4 6 -1
v -4 7 -1
v -4 9 -1
v -4 10 -1
v -4 11 -1
v -4 12 -1
v -3 2 -1
v -3 3 -1
v -2 3 -1
v -2 4 -1
v -2 5 -1
v -2 6 -1
v -2 7 -1
v -2 8 -1
v -2 10 -1
v -2 11 -1
v -1 1 -1
v -1 2 -1
v -1 3 -1
v -1 4 -1
v -1 5 -1
v -1 7 -1
v -1 8 -1
v -1 9 -1
v -1 10 -1
v -1 12 -1
v -1 13 -1
v 0 3 -1
v 0 4 -1
v 0 5 -1
v 0 6 -1
v 0 8 -1
v 0 9 -1
v 0 10 -1
v 0 11 -1
v 0 12 -1
v 1 7 -1
v 1 8 -1
v 1 10 -1
v 1 11 -1
v 2 4 -1
v 2 5 -1
v 2 6 -1
v 2 9 -1
v 2 10 -1
v 2 11 -1
v 3 5 -1
v 3 6 -1
v 3 7 -1
v 3 8 -1
v 3 9 -1
v 3 10 -1
v 3 11 -1
v 4 6 -1
v 4 7 -1
v 4 9 -1
v 5 6 -1
v 5 7 -1
v 5 8 -1
v 5 9 -1
v 5 10 -1
v 5 11 -1
v 6 2 -1
v 6 3 -1
v 6 6 -1
v 6 7 -1
v 6 8 -1
v 6 9 -1
v 6 10 -1
v 6 11 -1
v 7 2 -1
v 7 3 -1
v 7 4 -1
v 7 5 -1
v 7 6 -1
v 7 9 -1
v 7 10 -1
v 7 11 -1
v 7 12 -1
v 8 3 -1
v 8 4 -1
v 8 6 -1
v 8 7 -1
v 8 8 -1
v 8 9 -1
v 8 10 -1
v 8 11 -1
v 9 3 -1
v 9 4 -1
v 9 6 -1
v 9 9 -1
v 9 10 -1
v 9 11 -1
v 10 1 -1
v 10 2 -1
v 10 3 -1
v 10 4 -1
v 10 8 -1
v 10 13 -1
v 11 0 -1
v 11 14 -1
v -11 0 1
v 11 0 1
v -11 0 -1
v 11 0 -1
v -10 13 1
v 10 13 1
v -10 13 -0
v -1 13 -0
v 10 13 -0
v -10 1 1
v 10 1 1
v -10 1 -0
v -8 1 -0
v -1 1 -0
v 10 1 -0
v -11 14 1
v 11 14 1
v -11 14 -1
v 11 14 -1

# faces
f 3/2/1 2/2/1 1/2/1
f 4/2/1 2/2/1 3/2/1
f 7/2/1 6/2/1 5/2/1
f 8/2/1 7/2/1 5/2/1
f 9/2/1 8/2/1 5/2/1
f 10/2/1 9/2/1 5/2/1
f 11/2/1 10/2/1 5/2/1
f 12/2/1 10/2/1 11/2/1
f 13/2/2 14/2/2 15/2/2
f 13/2/2 15/2/2 16/2/2
f 13/2/2 16/2/2 17/2/2
f 13/2/2 17/2/2 18/2/2
f 13/2/2 18/2/2 19/2/2
f 13/2/2 19/2/2 20/2/2
f 13/2/2 20/2/2 21/2/2
f 13/2/2 21/2/2 22/2/2
f 22/2/2 21/2/2 23/2/2
f 24/2/2 25/2/2 26/2/2
f 26/2/2 25/2/2 27/2/2
f 30/2/3 29/2/3 28/2/3
f 31/2/3 29/2/3 30/2/3
f 32/2/3 30/2/3 28/2/3
f 33/2/3 29/2/3 31/2/3
f 34/2/3 32/2/3 28/2/3
f 34/2/3 33/2/3 32/2/3
f 35/2/3 29/2/3 33/2/3
f 35/2/3 33/2/3 34/2/3
f 45/3/3 37/3/3 36/3/3
f 45/8/3 38/8/3 37/8/3
f 46/6/3 39/6/3 38/6/3
f 46/8/3 38/8/3 45/8/3
f 47/5/3 40/5/3 39/5/3
f 47/6/3 39/6/3 46/6/3
f 48/6/3 41/6/3 40/6/3
f 48/5/3 40/5/3 47/5/3
f 49/6/3 44/6/3 43/6/3
f 49/7/3 43/7/3 42/7/3
f 50/6/3 44/6/3 49/6/3
f 51/3/3 45/3/3 36/3/3
f 52/3/3 45/3/3 51/3/3
f 53/6/3 46/6/3 45/6/3
f 53/3/3 45/3/3 52/3/3
f 53/6/3 47/6/3 46/6/3
f 54/6/3 47/6/3 53/6/3
f 55/6/3 47/6/3 54/6/3
f 56/3/3 48/3/3 47/3/3
f 56/6/3 47/6/3 55/6/3
f 57/6/3 41/6/3 48/6/3
f 57/3/3 48/3/3 56/3/3
f 58/8/3 42/8/3 41/8/3
f 58/7/3 49/7/3 42/7/3
f 59/3/3 50/3/3 49/3/3
f 59/7/3 49/7/3 58/7/3
f 60/3/3 53/3/3 52/3/3
f 60/4/3 54/4/3 53/4/3
f 61/5/3 55/5/3 54/5/3
f 61/4/3 54/4/3 60/4/3
f 62/3/3 60/3/3 52/3/3
f 62/8/3 61/8/3 60/8/3
f 63/5/3 55/5/3 61/5/3
f 63/8/3 61/8/3 62/8/3
f 64/6/3 56/6/3 55/6/3
f 64/5/3 55/5/3 63/5/3
f 65/5/3 57/5/3 56/5/3
f 65/6/3 56/6/3 64/6/3
f 66/6/3 41/6/3 57/6/3
f 66/5/3 57/5/3 65/5/3
f 67/8/3 58/8/3 41/8/3
f 67/6/3 41/6/3 66/6/3
f 68/3/3 50/3/3 59/3/3
f 68/6/3 59/6/3 58/6/3
f 69/6/3 44/6/3 50/6/3
f 69/3/3 50/3/3 68/3/3
f 70/3/3 62/3/3 52/3/3
f 70/8/3 52/8/3 51/8/3
f 71/4/3 63/4/3 62/4/3
f 71/3/3 62/3/3 70/3/3
f 72/6/3 65/6/3 64/6/3
f 72/4/3 63/4/3 71/4/3
f 72/6/3 64/6/3 63/6/3
f 73/6/3 65/6/3 72/6/3
f 74/6/3 65/6/3 73/6/3
f 75/4/3 66/4/3 65/4/3
f 75/6/3 65/6/3 74/6/3
f 76/6/3 74/6/3 73/6/3
f 76/5/3 73/5/3 72/5/3
f 77/4/3 75/4/3 74/4/3
f 77/6/3 74/6/3 76/6/3
f 78/4/3 66/4/3 75/4/3
f 78/4/3 75/4/3 77/4/3
f 79/5/3 67/5/3 66/5/3
f 79/8/3 58/8/3 67/8/3
f 80/6/3 68/6/3 58/6/3
f 80/8/3 58/8/3 79/8/3
f 81/8/3 69/8/3 68/8/3
f 81/6/3 68/6/3 80/6/3
f 82/6/3 44/6/3 69/6/3
f 82/8/3 69/8/3 81/8/3
f 83/8/3 70/8/3 51/8/3
f 83/8/3 71/8/3 70/8/3
f 84/4/3 72/4/3 71/4/3
f 84/8/3 71/8/3 83/8/3
f 85/6/3 84/6/3 83/6/3
f 85/4/3 72/4/3 84/4/3
f 86/5/3 76/5/3 72/5/3
f 86/4/3 72/4/3 85/4/3
f 87/4/3 77/4/3 76/4/3
f 87/5/3 76/5/3 86/5/3
f 88/5/3 78/5/3 77/5/3
f 88/4/3 77/4/3 87/4/3
f 89/4/3 66/4/3 78/4/3
f 89/5/3 78/5/3 88/5/3
f 90/5/3 79/5/3 66/5/3
f 90/4/3 66/4/3 89/4/3
f 90/5/3 80/5/3 79/5/3
f 91/6/3 81/6/3 80/6/3
f 91/5/3 80/5/3 90/5/3
f 91/6/3 82/6/3 81/6/3
f 92/6/3 82/6/3 91/6/3
f 93/8/3 83/8/3 51/8/3
f 94/6/3 85/6/3 83/6/3
f 94/8/3 83/8/3 93/8/3
f 95/8/3 86/8/3 85/8/3
f 95/6/3 85/6/3 94/6/3
f 96/4/3 87/4/3 86/4/3
f 96/8/3 86/8/3 95/8/3
f 97/5/3 88/5/3 87/5/3
f 97/4/3 87/4/3 96/4/3
f 98/5/3 90/5/3 89/5/3
f 98/3/3 89/3/3 88/3/3
f 98/5/3 91/5/3 90/5/3
f 99/5/3 91/5/3 98/5/3
f 100/5/3 91/5/3 99/5/3
f 101/3/3 92/3/3 91/3/3
f 101/5/3 91/5/3 100/5/3
f 102/6/3 44/6/3 82/6/3
f 102/6/3 82/6/3 92/6/3
f 103/6/3 44/6/3 102/6/3
f 104/8/3 96/8/3 95/8/3
f 104/8/3 95/8/3 94/8/3
f 105/5/3 97/5/3 96/5/3
f 105/8/3 96/8/3 104/8/3
f 106/5/3 88/5/3 97/5/3
f 106/5/3 97/5/3 105/5/3
f 107/3/3 98/3/3 88/3/3
f 107/5/3 88/5/3 106/5/3
f 108/5/3 100/5/3 99/5/3
f 108/6/3 99/6/3 98/6/3
f 109/3/3 101/3/3 100/3/3
f 109/5/3 100/5/3 108/5/3
f 110/3/3 92/3/3 101/3/3
f 110/3/3 101/3/3 109/3/3
f 111/6/3 102/6/3 92/6/3
f 111/3/3 92/3/3 110/3/3
f 112/7/3 103/7/3 102/7/3
f 112/6/3 102/6/3 111/6/3
f 113/6/3 109/6/3 108/6/3
f 113/6/3 108/6/3 98/6/3
f 113/3/3 98/3/3 107/3/3
f 113/3/3 107/3/3 106/3/3
f 114/6/3 109/6/3 113/6/3
f 115/1/3 111/1/3 110/1/3
f 115/3/3 110/3/3 109/3/3
f 116/3/3 112/3/3 111/3/3
f 116/1/3 111/1/3 115/1/3
f 117/4/3 105/4/3 104/4/3
f 117/5/3 106/5/3 105/5/3
f 118/3/3 114/3/3 113/3/3
f 118/5/3 106/5/3 117/5/3
f 118/3/3 113/3/3 106/3/3
f 119/3/3 114/3/3 118/3/3
f 120/3/3 115/3/3 109/3/3
f 120/6/3 109/6/3 114/6/3
f 121/9/3 116/9/3 115/9/3
f 121/3/3 115/3/3 120/3/3
f 122/3/3 112/3/3 116/3/3
f 122/9/3 116/9/3 121/9/3
f 123/1/3 119/1/3 118/1/3
f 123/7/3 118/7/3 117/7/3
f 124/3/3 114/3/3 119/3/3
f 124/1/3 119/1/3 123/1/3
f 125/3/3 114/3/3 124/3/3
f 126/6/3 121/6/3 120/6/3
f 126/3/3 114/3/3 125/3/3
f 126/6/3 120/6/3 114/6/3
f 127/6/3 121/6/3 126/6/3
f 128/7/3 122/7/3 121/7/3
f 128/6/3 121/6/3 127/6/3
f 129/3/3 112/3/3 122/3/3
f 129/7/3 122/7/3 128/7/3
f 130/3/3 125/3/3 124/3/3
f 130/3/3 124/3/3 123/3/3
f 131/6/3 127/6/3 126/6/3
f 131/3/3 125/3/3 130/3/3
f 131/6/3 126/6/3 125/6/3
f 132/3/3 128/3/3 127/3/3
f 132/6/3 127/6/3 131/6/3
f 132/3/3 129/3/3 128/3/3
f 133/1/3 131/1/3 130/1/3
f 133/3/3 130/3/3 123/3/3
f 134/7/3 132/7/3 131/7/3
f 134/1/3 131/1/3 133/1/3
f 135/7/3 132/7/3 134/7/3
f 136/3/3 129/3/3 132/3/3
f 136/7/3 132/7/3 135/7/3
f 137/3/3 129/3/3 136/3/3
f 138/3/3 112/3/3 129/3/3
f 138/3/3 129/3/3 137/3/3
f 139/8/3 104/8/3 94/8/3
f 139/6/3 94/6/3 93/6/3
f 140/4/3 117/4/3 104/4/3
f 140/8/3 104/8/3 139/8/3
f 141/3/3 133/3/3 123/3/3
f 141/9/3 134/9/3 133/9/3
f 142/6/3 135/6/3 134/6/3
f 142/9/3 134/9/3 141/9/3
f 143/7/3 136/7/3 135/7/3
f 143/6/3 135/6/3 142/6/3
f 144/1/3 137/1/3 136/1/3
f 144/7/3 136/7/3 143/7/3
f 145/6/3 138/6/3 137/6/3
f 145/1/3 137/1/3 144/1/3
f 146/3/3 112/3/3 138/3/3
f 146/6/3 138/6/3 145/6/3
f 147/6/3 139/6/3 93/6/3
f 147/6/3 140/6/3 139/6/3
f 148/4/3 117/4/3 140/4/3
f 148/6/3 140/6/3 147/6/3
f 149/7/3 123/7/3 117/7/3
f 149/4/3 117/4/3 148/4/3
f 150/3/3 141/3/3 123/3/3
f 150/7/3 123/7/3 149/7/3
f 151/6/3 142/6/3 141/6/3
f 151/3/3 141/3/3 150/3/3
f 152/3/3 143/3/3 142/3/3
f 152/7/3 145/7/3 144/7/3
f 152/3/3 144/3/3 143/3/3
f 152/7/3 146/7/3 145/7/3
f 153/7/3 146/7/3 152/7/3
f 154/3/3 112/3/3 146/3/3
f 154/7/3 146/7/3 153/7/3
f 155/7/3 103/7/3 112/7/3
f 155/3/3 112/3/3 154/3/3
f 156/3/3 148/3/3 147/3/3
f 156/6/3 149/6/3 148/6/3
f 157/7/3 151/7/3 150/7/3
f 157/6/3 149/6/3 156/6/3
f 157/7/3 150/7/3 149/7/3
f 158/6/3 142/6/3 151/6/3
f 158/7/3 151/7/3 157/7/3
f 159/3/3 152/3/3 142/3/3
f 159/6/3 142/6/3 158/6/3
f 159/3/3 153/3/3 152/3/3
f 160/3/3 153/3/3 159/3/3
f 161/3/3 153/3/3 160/3/3
f 162/1/3 154/1/3 153/1/3
f 162/3/3 153/3/3 161/3/3
f 163/7/3 155/7/3 154/7/3
f 163/1/3 154/1/3 162/1/3
f 164/1/3 157/1/3 156/1/3
f 164/3/3 156/3/3 147/3/3
f 165/7/3 158/7/3 157/7/3
f 165/1/3 157/1/3 164/1/3
f 166/3/3 159/3/3 158/3/3
f 166/7/3 158/7/3 165/7/3
f 166/3/3 160/3/3 159/3/3
f 167/7/3 161/7/3 160/7/3
f 167/3/3 162/3/3 161/3/3
f 168/9/3 163/9/3 162/9/3
f 168/3/3 162/3/3 167/3/3
f 169/7/3 155/7/3 163/7/3
f 169/9/3 163/9/3 168/9/3
f 170/6/3 147/6/3 93/6/3
f 171/3/3 164/3/3 147/3/3
f 171/6/3 147/6/3 170/6/3
f 172/9/3 165/9/3 164/9/3
f 172/3/3 164/3/3 171/3/3
f 173/3/3 166/3/3 165/3/3
f 173/9/3 165/9/3 172/9/3
f 174/3/3 160/3/3 166/3/3
f 174/3/3 166/3/3 173/3/3
f 174/7/3 168/7/3 167/7/3
f 174/7/3 169/7/3 168/7/3
f 174/7/3 167/7/3 160/7/3
f 175/7/3 155/7/3 169/7/3
f 175/7/3 169/7/3 174/7/3
f 175/7/3 103/7/3 155/7/3
f 176/2/4 177/2/4 178/2/4
f 178/2/4 177/2/4 179/2/4
f 179/2/4 177/2/4 180/2/4
f 180/2/4 177/2/4 181/2/4
f 181/2/4 177/2/4 182/2/4
f 182/2/4 177/2/4 183/2/4
f 183/2/4 177/2/4 184/2/4
f 184/2/4 177/2/4 185/2/4
f 185/2/4 177/2/4 186/2/4
f 178/3/4 179/3/4 187/3/4
f 179/8/4 180/8/4 187/8/4
f 180/6/4 181/6/4 188/6/4
f 187/8/4 180/8/4 188/8/4
f 181/5/4 182/5/4 189/5/4
f 188/6/4 181/6/4 189/6/4
f 182/6/4 183/6/4 190/6/4
f 189/5/4 182/5/4 190/5/4
f 185/6/4 186/6/4 191/6/4
f 184/7/4 185/7/4 191/7/4
f 191/6/4 186/6/4 192/6/4
f 176/2/4 178/2/4 193/2/4
f 178/3/4 187/3/4 193/3/4
f 193/3/4 187/3/4 194/3/4
f 187/6/4 188/6/4 195/6/4
f 194/3/4 187/3/4 195/3/4
f 188/6/4 189/6/4 195/6/4
f 195/6/4 189/6/4 196/6/4
f 196/6/4 189/6/4 197/6/4
f 189/3/4 190/3/4 198/3/4
f 197/6/4 189/6/4 198/6/4
f 190/6/4 183/6/4 199/6/4
f 198/3/4 190/3/4 199/3/4
f 183/8/4 184/8/4 200/8/4
f 184/7/4 191/7/4 200/7/4
f 191/3/4 192/3/4 201/3/4
f 200/7/4 191/7/4 201/7/4
f 194/3/4 195/3/4 202/3/4
f 195/4/4 196/4/4 202/4/4
f 196/5/4 197/5/4 203/5/4
f 202/4/4 196/4/4 203/4/4
f 194/3/4 202/3/4 204/3/4
f 202/8/4 203/8/4 204/8/4
f 203/5/4 197/5/4 205/5/4
f 204/8/4 203/8/4 205/8/4
f 197/6/4 198/6/4 206/6/4
f 205/5/4 197/5/4 206/5/4
f 198/5/4 199/5/4 207/5/4
f 206/6/4 198/6/4 207/6/4
f 199/6/4 183/6/4 208/6/4
f 207/5/4 199/5/4 208/5/4
f 183/8/4 200/8/4 209/8/4
f 208/6/4 183/6/4 209/6/4
f 201/3/4 192/3/4 210/3/4
f 200/6/4 201/6/4 210/6/4
f 192/6/4 186/6/4 211/6/4
f 210/3/4 192/3/4 211/3/4
f 193/8/4 194/8/4 212/8/4
f 194/3/4 204/3/4 212/3/4
f 204/4/4 205/4/4 213/4/4
f 212/3/4 204/3/4 213/3/4
f 206/6/4 207/6/4 214/6/4
f 213/4/4 205/4/4 214/4/4
f 205/6/4 206/6/4 214/6/4
f 214/6/4 207/6/4 215/6/4
f 215/6/4 207/6/4 216/6/4
f 207/4/4 208/4/4 217/4/4
f 216/6/4 207/6/4 217/6/4
f 215/6/4 216/6/4 218/6/4
f 214/5/4 215/5/4 218/5/4
f 216/4/4 217/4/4 219/4/4
f 218/6/4 216/6/4 219/6/4
f 217/4/4 208/4/4 220/4/4
f 219/4/4 217/4/4 220/4/4
f 208/5/4 209/5/4 221/5/4
f 209/8/4 200/8/4 221/8/4
f 200/6/4 210/6/4 222/6/4
f 221/8/4 200/8/4 222/8/4
f 210/8/4 211/8/4 223/8/4
f 222/6/4 210/6/4 223/6/4
f 211/6/4 186/6/4 224/6/4
f 223/8/4 211/8/4 224/8/4
f 193/8/4 212/8/4 225/8/4
f 212/8/4 213/8/4 225/8/4
f 213/4/4 214/4/4 226/4/4
f 225/8/4 213/8/4 226/8/4
f 225/6/4 226/6/4 227/6/4
f 226/4/4 214/4/4 227/4/4
f 214/5/4 218/5/4 228/5/4
f 227/4/4 214/4/4 228/4/4
f 218/4/4 219/4/4 229/4/4
f 228/5/4 218/5/4 229/5/4
f 219/5/4 220/5/4 230/5/4
f 229/4/4 219/4/4 230/4/4
f 220/4/4 208/4/4 231/4/4
f 230/5/4 220/5/4 231/5/4
f 208/5/4 221/5/4 232/5/4
f 231/4/4 208/4/4 232/4/4
f 221/5/4 222/5/4 232/5/4
f 222/6/4 223/6/4 233/6/4
f 232/5/4 222/5/4 233/5/4
f 223/6/4 224/6/4 233/6/4
f 233/6/4 224/6/4 234/6/4
f 176/2/4 193/2/4 235/2/4
f 193/8/4 225/8/4 235/8/4
f 225/6/4 227/6/4 236/6/4
f 235/8/4 225/8/4 236/8/4
f 227/8/4 228/8/4 237/8/4
f 236/6/4 227/6/4 237/6/4
f 228/4/4 229/4/4 238/4/4
f 237/8/4 228/8/4 238/8/4
f 229/5/4 230/5/4 239/5/4
f 238/4/4 229/4/4 239/4/4
f 230/3/4 231/3/4 240/3/4
f 231/5/4 232/5/4 240/5/4
f 232/5/4 233/5/4 240/5/4
f 240/5/4 233/5/4 241/5/4
f 241/5/4 233/5/4 242/5/4
f 233/3/4 234/3/4 243/3/4
f 242/5/4 233/5/4 243/5/4
f 224/6/4 186/6/4 244/6/4
f 234/6/4 224/6/4 244/6/4
f 186/2/4 177/2/4 245/2/4
f 244/6/4 186/6/4 245/6/4
f 237/8/4 238/8/4 246/8/4
f 236/8/4 237/8/4 246/8/4
f 238/5/4 239/5/4 247/5/4
f 246/8/4 238/8/4 247/8/4
f 239/5/4 230/5/4 248/5/4
f 247/5/4 239/5/4 248/5/4
f 230/3/4 240/3/4 249/3/4
f 248/5/4 230/5/4 249/5/4
f 241/5/4 242/5/4 250/5/4
f 240/6/4 241/6/4 250/6/4
f 242/3/4 243/3/4 251/3/4
f 250/5/4 242/5/4 251/5/4
f 243/3/4 234/3/4 252/3/4
f 251/3/4 243/3/4 252/3/4
f 234/6/4 244/6/4 253/6/4
f 252/3/4 234/3/4 253/3/4
f 244/7/4 245/7/4 254/7/4
f 253/6/4 244/6/4 254/6/4
f 250/6/4 251/6/4 255/6/4
f 240/6/4 250/6/4 255/6/4
f 249/3/4 240/3/4 255/3/4
f 248/3/4 249/3/4 255/3/4
f 255/6/4 251/6/4 256/6/4
f 251/3/4 252/3/4 257/3/4
f 252/1/4 253/1/4 257/1/4
f 253/3/4 254/3/4 258/3/4
f 257/1/4 253/1/4 258/1/4
f 246/4/4 247/4/4 259/4/4
f 247/5/4 248/5/4 259/5/4
f 255/3/4 256/3/4 260/3/4
f 259/5/4 248/5/4 260/5/4
f 248/3/4 255/3/4 260/3/4
f 260/3/4 256/3/4 261/3/4
f 256/6/4 251/6/4 262/6/4
f 251/3/4 257/3/4 262/3/4
f 257/9/4 258/9/4 263/9/4
f 262/3/4 257/3/4 263/3/4
f 258/3/4 254/3/4 264/3/4
f 263/9/4 258/9/4 264/9/4
f 260/1/4 261/1/4 265/1/4
f 259/7/4 260/7/4 265/7/4
f 261/3/4 256/3/4 266/3/4
f 265/1/4 261/1/4 266/1/4
f 266/3/4 256/3/4 267/3/4
f 262/6/4 263/6/4 268/6/4
f 267/3/4 256/3/4 268/3/4
f 256/6/4 262/6/4 268/6/4
f 268/6/4 263/6/4 269/6/4
f 263/7/4 264/7/4 270/7/4
f 269/6/4 263/6/4 270/6/4
f 264/3/4 254/3/4 271/3/4
f 270/7/4 264/7/4 271/7/4
f 266/3/4 267/3/4 272/3/4
f 265/3/4 266/3/4 272/3/4
f 268/6/4 269/6/4 273/6/4
f 272/3/4 267/3/4 273/3/4
f 267/6/4 268/6/4 273/6/4
f 269/3/4 270/3/4 274/3/4
f 273/6/4 269/6/4 274/6/4
f 270/3/4 271/3/4 274/3/4
f 272/1/4 273/1/4 275/1/4
f 265/3/4 272/3/4 275/3/4
f 273/7/4 274/7/4 276/7/4
f 275/1/4 273/1/4 276/1/4
f 276/7/4 274/7/4 277/7/4
f 274/3/4 271/3/4 278/3/4
f 277/7/4 274/7/4 278/7/4
f 278/3/4 271/3/4 279/3/4
f 271/3/4 254/3/4 280/3/4
f 279/3/4 271/3/4 280/3/4
f 235/6/4 236/6/4 281/6/4
f 236/8/4 246/8/4 281/8/4
f 246/4/4 259/4/4 282/4/4
f 281/8/4 246/8/4 282/8/4
f 265/3/4 275/3/4 283/3/4
f 275/9/4 276/9/4 283/9/4
f 276/6/4 277/6/4 284/6/4
f 283/9/4 276/9/4 284/9/4
f 277/7/4 278/7/4 285/7/4
f 284/6/4 277/6/4 285/6/4
f 278/1/4 279/1/4 286/1/4
f 285/7/4 278/7/4 286/7/4
f 279/6/4 280/6/4 287/6/4
f 286/1/4 279/1/4 287/1/4
f 280/3/4 254/3/4 288/3/4
f 287/6/4 280/6/4 288/6/4
f 235/6/4 281/6/4 289/6/4
f 281/6/4 282/6/4 289/6/4
f 282/4/4 259/4/4 290/4/4
f 289/6/4 282/6/4 290/6/4
f 259/7/4 265/7/4 291/7/4
f 290/4/4 259/4/4 291/4/4
f 265/3/4 283/3/4 292/3/4
f 291/7/4 265/7/4 292/7/4
f 283/6/4 284/6/4 293/6/4
f 292/3/4 283/3/4 293/3/4
f 284/3/4 285/3/4 294/3/4
f 286/7/4 287/7/4 294/7/4
f 285/3/4 286/3/4 294/3/4
f 287/7/4 288/7/4 294/7/4
f 294/7/4 288/7/4 295/7/4
f 288/3/4 254/3/4 296/3/4
f 295/7/4 288/7/4 296/7/4
f 254/7/4 245/7/4 297/7/4
f 296/3/4 254/3/4 297/3/4
f 289/3/4 290/3/4 298/3/4
f 290/6/4 291/6/4 298/6/4
f 292/7/4 293/7/4 299/7/4
f 298/6/4 291/6/4 299/6/4
f 291/7/4 292/7/4 299/7/4
f 293/6/4 284/6/4 300/6/4
f 299/7/4 293/7/4 300/7/4
f 284/3/4 294/3/4 301/3/4
f 300/6/4 284/6/4 301/6/4
f 294/3/4 295/3/4 301/3/4
f 301/3/4 295/3/4 302/3/4
f 302/3/4 295/3/4 303/3/4
f 295/1/4 296/1/4 304/1/4
f 303/3/4 295/3/4 304/3/4
f 296/7/4 297/7/4 305/7/4
f 304/1/4 296/1/4 305/1/4
f 298/1/4 299/1/4 306/1/4
f 289/3/4 298/3/4 306/3/4
f 299/7/4 300/7/4 307/7/4
f 306/1/4 299/1/4 307/1/4
f 300/3/4 301/3/4 308/3/4
f 307/7/4 300/7/4 308/7/4
f 301/3/4 302/3/4 308/3/4
f 302/7/4 303/7/4 309/7/4
f 303/3/4 304/3/4 309/3/4
f 304/9/4 305/9/4 310/9/4
f 309/3/4 304/3/4 310/3/4
f 305/7/4 297/7/4 311/7/4
f 310/9/4 305/9/4 311/9/4
f 235/6/4 289/6/4 312/6/4
f 176/2/4 235/2/4 312/2/4
f 289/3/4 306/3/4 313/3/4
f 312/6/4 289/6/4 313/6/4
f 306/9/4 307/9/4 314/9/4
f 313/3/4 306/3/4 314/3/4
f 307/3/4 308/3/4 315/3/4
f 314/9/4 307/9/4 315/9/4
f 309/7/4 310/7/4 316/7/4
f 315/3/4 308/3/4 316/3/4
f 308/3/4 302/3/4 316/3/4
f 302/7/4 309/7/4 316/7/4
f 310/7/4 311/7/4 316/7/4
f 297/7/4 245/7/4 317/7/4
f 316/7/4 311/7/4 317/7/4
f 245/2/4 177/2/4 317/2/4
f 311/7/4 297/7/4 317/7/4
f 314/2/4 315/2/4 318/2/4
f 315/2/4 316/2/4 318/2/4
f 316/2/4 317/2/4 318/2/4
f 176/2/4 312/2/4 318/2/4
f 313/2/4 314/2/4 318/2/4
f 312/2/4 313/2/4 318/2/4
f 317/2/4 177/2/4 319/2/4
f 318/2/4 317/2/4 319/2/4
f 322/2/5 321/2/5 320/2/5
f 323/2/5 321/2/5 322/2/5
f 326/2/5 325/2/5 324/2/5
f 327/2/5 325/2/5 326/2/5
f 328/2/5 325/2/5 327/2/5
f 329/2/6 330/2/6 331/2/6
f 331/2/6 330/2/6 332/2/6
f 332/2/6 330/2/6 333/2/6
f 333/2/6 330/2/6 334/2/6
f 335/2/6 336/2/6 337/2/6
f 337/2/6 336/2/6 338/2/6
