# MagicaVoxel @ Ephtracy

# group
g chave

# material
mtllib chave.mtl
usemtl palette

# normals
vn -1 0 0
vn 1 0 0
vn 0 0 1
vn 0 0 -1
vn 0 -1 0
vn 0 1 0

# texcoords
vt 0.0449219 0.5
vt 0.0644531 0.5
vt 0.373047 0.5
vt 0.802734 0.5
vt 0.806641 0.5
vt 0.837891 0.5

# verts
v -6.5 21 1
v -6.5 21 -1
v -6.5 22 1
v -6.5 22 -1
v -6.5 26 1
v -6.5 26 -1
v -5.5 19 1
v -5.5 19 -1
v -5.5 20 1
v -5.5 20 -1
v -5.5 21 1
v -5.5 21 -1
v -5.5 26 1
v -5.5 26 -1
v -5.5 27 1
v -5.5 27 -1
v -5.5 28 1
v -5.5 28 -1
v -4.5 18 1
v -4.5 18 -1
v -4.5 19 1
v -4.5 19 -1
v -4.5 28 1
v -4.5 28 -1
v -4.5 29 1
v -4.5 29 -1
v -2.5 17 1
v -2.5 17 -1
v -2.5 18 1
v -2.5 18 -1
v -2.5 29 1
v -2.5 29 -1
v -2.5 30 1
v -2.5 30 -1
v -1.5 1 1
v -1.5 1 -1
v -1.5 2 1
v -1.5 2 -1
v -1.5 14 1
v -1.5 14 -1
v -1.5 16 1
v -1.5 16 -1
v -1.5 17 1
v -1.5 17 -1
v -0.5 0 1
v -0.5 0 -1
v -0.5 1 1
v -0.5 1 -1
v 1.5 20 1
v 1.5 20 -1
v 1.5 21 1
v 1.5 21 -1
v 1.5 26 1
v 1.5 26 -1
v 1.5 27 1
v 1.5 27 -1
v 2.5 21 1
v 2.5 21 -1
v 2.5 22 1
v 2.5 22 -1
v 2.5 25 1
v 2.5 25 -1
v 2.5 26 1
v 2.5 26 -1
v 3.5 2 1
v 3.5 2 -1
v 3.5 3 1
v 3.5 3 -1
v 3.5 5 1
v 3.5 5 -1
v 3.5 6 1
v 3.5 6 -1
v 3.5 8 1
v 3.5 8 -1
v 3.5 9 1
v 3.5 9 -1
v 3.5 11 1
v 3.5 11 -1
v 3.5 12 1
v 3.5 12 -1
v 3.5 22 1
v 3.5 22 -1
v 3.5 25 1
v 3.5 25 -1
v -3.5 22 1
v -3.5 22 -1
v -3.5 25 1
v -3.5 25 -1
v -2.5 21 1
v -2.5 21 -1
v -2.5 22 1
v -2.5 22 -1
v -2.5 25 1
v -2.5 25 -1
v -2.5 26 1
v -2.5 26 -1
v -1.5 20 1
v -1.5 20 -1
v -1.5 21 1
v -1.5 21 -1
v -1.5 26 1
v -1.5 26 -1
v -1.5 27 1
v -1.5 27 -1
v 0.5 0 1
v 0.5 0 -1
v 0.5 1 1
v 0.5 1 -1
v 1.5 1 1
v 1.5 1 -1
v 1.5 3 1
v 1.5 3 -1
v 1.5 5 1
v 1.5 5 -1
v 1.5 9 1
v 1.5 9 -1
v 1.5 11 1
v 1.5 11 -1
v 1.5 14 1
v 1.5 14 -1
v 1.5 17 1
v 1.5 17 -1
v 2.5 17 1
v 2.5 17 -1
v 2.5 18 1
v 2.5 18 -1
v 2.5 29 1
v 2.5 29 -1
v 2.5 30 1
v 2.5 30 -1
v 4.5 2 1
v 4.5 2 -1
v 4.5 3 1
v 4.5 3 -1
v 4.5 5 1
v 4.5 5 -1
v 4.5 6 1
v 4.5 6 -1
v 4.5 8 1
v 4.5 8 -1
v 4.5 9 1
v 4.5 9 -1
v 4.5 11 1
v 4.5 11 -1
v 4.5 12 1
v 4.5 12 -1
v 4.5 18 1
v 4.5 18 -1
v 4.5 19 1
v 4.5 19 -1
v 4.5 28 1
v 4.5 28 -1
v 4.5 29 1
v 4.5 29 -1
v 5.5 19 1
v 5.5 19 -1
v 5.5 20 1
v 5.5 20 -1
v 5.5 21 1
v 5.5 21 -1
v 5.5 26 1
v 5.5 26 -1
v 5.5 27 1
v 5.5 27 -1
v 5.5 28 1
v 5.5 28 -1
v 6.5 21 1
v 6.5 21 -1
v 6.5 25 1
v 6.5 25 -1
v 6.5 26 1
v 6.5 26 -1
v -6.5 21 1
v -6.5 22 1
v -6.5 26 1
v -5.5 19 1
v -5.5 20 1
v -5.5 21 1
v -5.5 22 1
v -5.5 26 1
v -5.5 27 1
v -5.5 28 1
v -4.5 18 1
v -4.5 19 1
v -4.5 20 1
v -4.5 27 1
v -4.5 28 1
v -4.5 29 1
v -3.5 22 1
v -3.5 25 1
v -3.5 26 1
v -2.5 17 1
v -2.5 18 1
v -2.5 19 1
v -2.5 21 1
v -2.5 22 1
v -2.5 25 1
v -2.5 26 1
v -2.5 27 1
v -2.5 28 1
v -2.5 29 1
v -2.5 30 1
v -1.5 1 1
v -1.5 2 1
v -1.5 14 1
v -1.5 16 1
v -1.5 17 1
v -1.5 20 1
v -1.5 21 1
v -1.5 26 1
v -1.5 27 1
v -1.5 28 1
v -0.5 0 1
v -0.5 1 1
v -0.5 2 1
v -0.5 14 1
v -0.5 16 1
v 0.5 0 1
v 0.5 1 1
v 0.5 14 1
v 0.5 16 1
v 1.5 1 1
v 1.5 3 1
v 1.5 4 1
v 1.5 5 1
v 1.5 9 1
v 1.5 10 1
v 1.5 11 1
v 1.5 14 1
v 1.5 17 1
v 1.5 20 1
v 1.5 21 1
v 1.5 26 1
v 1.5 27 1
v 1.5 28 1
v 2.5 17 1
v 2.5 18 1
v 2.5 19 1
v 2.5 21 1
v 2.5 22 1
v 2.5 25 1
v 2.5 26 1
v 2.5 27 1
v 2.5 28 1
v 2.5 29 1
v 2.5 30 1
v 3.5 2 1
v 3.5 3 1
v 3.5 4 1
v 3.5 5 1
v 3.5 6 1
v 3.5 8 1
v 3.5 9 1
v 3.5 10 1
v 3.5 11 1
v 3.5 12 1
v 3.5 22 1
v 3.5 25 1
v 3.5 26 1
v 4.5 2 1
v 4.5 3 1
v 4.5 5 1
v 4.5 6 1
v 4.5 8 1
v 4.5 9 1
v 4.5 11 1
v 4.5 12 1
v 4.5 18 1
v 4.5 19 1
v 4.5 20 1
v 4.5 27 1
v 4.5 28 1
v 4.5 29 1
v 5.5 19 1
v 5.5 20 1
v 5.5 21 1
v 5.5 25 1
v 5.5 26 1
v 5.5 27 1
v 5.5 28 1
v 6.5 21 1
v 6.5 25 1
v 6.5 26 1
v -6.5 21 -1
v -6.5 22 -1
v -6.5 26 -1
v -5.5 19 -1
v -5.5 20 -1
v -5.5 21 -1
v -5.5 22 -1
v -5.5 26 -1
v -5.5 27 -1
v -5.5 28 -1
v -4.5 18 -1
v -4.5 19 -1
v -4.5 20 -1
v -4.5 27 -1
v -4.5 28 -1
v -4.5 29 -1
v -3.5 22 -1
v -3.5 25 -1
v -3.5 26 -1
v -2.5 17 -1
v -2.5 18 -1
v -2.5 19 -1
v -2.5 21 -1
v -2.5 22 -1
v -2.5 25 -1
v -2.5 26 -1
v -2.5 27 -1
v -2.5 28 -1
v -2.5 29 -1
v -2.5 30 -1
v -1.5 1 -1
v -1.5 2 -1
v -1.5 14 -1
v -1.5 16 -1
v -1.5 17 -1
v -1.5 20 -1
v -1.5 21 -1
v -1.5 26 -1
v -1.5 27 -1
v -1.5 28 -1
v -0.5 0 -1
v -0.5 1 -1
v -0.5 2 -1
v -0.5 14 -1
v -0.5 16 -1
v 0.5 0 -1
v 0.5 1 -1
v 0.5 14 -1
v 0.5 16 -1
v 1.5 1 -1
v 1.5 3 -1
v 1.5 4 -1
v 1.5 5 -1
v 1.5 9 -1
v 1.5 10 -1
v 1.5 11 -1
v 1.5 14 -1
v 1.5 17 -1
v 1.5 20 -1
v 1.5 21 -1
v 1.5 26 -1
v 1.5 27 -1
v 1.5 28 -1
v 2.5 17 -1
v 2.5 18 -1
v 2.5 19 -1
v 2.5 21 -1
v 2.5 22 -1
v 2.5 25 -1
v 2.5 26 -1
v 2.5 27 -1
v 2.5 28 -1
v 2.5 29 -1
v 2.5 30 -1
v 3.5 2 -1
v 3.5 3 -1
v 3.5 4 -1
v 3.5 5 -1
v 3.5 6 -1
v 3.5 8 -1
v 3.5 9 -1
v 3.5 10 -1
v 3.5 11 -1
v 3.5 12 -1
v 3.5 22 -1
v 3.5 25 -1
v 3.5 26 -1
v 4.5 2 -1
v 4.5 3 -1
v 4.5 5 -1
v 4.5 6 -1
v 4.5 8 -1
v 4.5 9 -1
v 4.5 11 -1
v 4.5 12 -1
v 4.5 18 -1
v 4.5 19 -1
v 4.5 20 -1
v 4.5 27 -1
v 4.5 28 -1
v 4.5 29 -1
v 5.5 19 -1
v 5.5 20 -1
v 5.5 21 -1
v 5.5 25 -1
v 5.5 26 -1
v 5.5 27 -1
v 5.5 28 -1
v 6.5 21 -1
v 6.5 25 -1
v 6.5 26 -1
v -0.5 0 1
v 0.5 0 1
v -0.5 0 -1
v 0.5 0 -1
v -1.5 1 1
v -0.5 1 1
v 0.5 1 1
v 1.5 1 1
v -1.5 1 -1
v -0.5 1 -1
v 0.5 1 -1
v 1.5 1 -1
v 3.5 2 1
v 4.5 2 1
v 3.5 2 -1
v 4.5 2 -1
v 1.5 3 1
v 3.5 3 1
v 1.5 3 -1
v 3.5 3 -1
v 3.5 8 1
v 4.5 8 1
v 3.5 8 -1
v 4.5 8 -1
v 1.5 9 1
v 3.5 9 1
v 1.5 9 -1
v 3.5 9 -1
v -2.5 17 1
v -1.5 17 1
v 1.5 17 1
v 2.5 17 1
v -2.5 17 -1
v -1.5 17 -1
v 1.5 17 -1
v 2.5 17 -1
v -4.5 18 1
v -2.5 18 1
v 2.5 18 1
v 4.5 18 1
v -4.5 18 -1
v -2.5 18 -1
v 2.5 18 -1
v 4.5 18 -1
v -5.5 19 1
v -4.5 19 1
v 4.5 19 1
v 5.5 19 1
v -5.5 19 -1
v -4.5 19 -1
v 4.5 19 -1
v 5.5 19 -1
v -6.5 21 1
v -5.5 21 1
v 5.5 21 1
v 6.5 21 1
v -6.5 21 -1
v -5.5 21 -1
v 5.5 21 -1
v 6.5 21 -1
v -3.5 25 1
v -2.5 25 1
v 2.5 25 1
v 3.5 25 1
v -3.5 25 -1
v -2.5 25 -1
v 2.5 25 -1
v 3.5 25 -1
v -2.5 26 1
v -1.5 26 1
v 1.5 26 1
v 2.5 26 1
v -2.5 26 -1
v -1.5 26 -1
v 1.5 26 -1
v 2.5 26 -1
v -1.5 27 1
v 1.5 27 1
v -1.5 27 -1
v 1.5 27 -1
v 1.5 5 1
v 3.5 5 1
v 1.5 5 -1
v 3.5 5 -1
v 3.5 6 1
v 4.5 6 1
v 3.5 6 -1
v 4.5 6 -1
v 1.5 11 1
v 3.5 11 1
v 1.5 11 -1
v 3.5 11 -1
v 3.5 12 1
v 4.5 12 1
v 3.5 12 -1
v 4.5 12 -1
v -1.5 20 1
v 1.5 20 1
v -1.5 20 -1
v 1.5 20 -1
v -2.5 21 1
v -1.5 21 1
v 1.5 21 1
v 2.5 21 1
v -2.5 21 -1
v -1.5 21 -1
v 1.5 21 -1
v 2.5 21 -1
v -3.5 22 1
v -2.5 22 1
v 2.5 22 1
v 3.5 22 1
v -3.5 22 -1
v -2.5 22 -1
v 2.5 22 -1
v 3.5 22 -1
v -6.5 26 1
v -5.5 26 1
v 5.5 26 1
v 6.5 26 1
v -6.5 26 -1
v -5.5 26 -1
v 5.5 26 -1
v 6.5 26 -1
v -5.5 28 1
v -4.5 28 1
v 4.5 28 1
v 5.5 28 1
v -5.5 28 -1
v -4.5 28 -1
v 4.5 28 -1
v 5.5 28 -1
v -4.5 29 1
v -2.5 29 1
v 2.5 29 1
v 4.5 29 1
v -4.5 29 -1
v -2.5 29 -1
v 2.5 29 -1
v 4.5 29 -1
v -2.5 30 1
v 2.5 30 1
v -2.5 30 -1
v 2.5 30 -1

# faces
f 3/2/1 2/2/1 1/2/1
f 4/2/1 2/2/1 3/2/1
f 5/1/1 4/1/1 3/1/1
f 6/1/1 4/1/1 5/1/1
f 9/2/1 8/2/1 7/2/1
f 10/2/1 8/2/1 9/2/1
f 11/3/1 10/3/1 9/3/1
f 12/3/1 10/3/1 11/3/1
f 15/3/1 14/3/1 13/3/1
f 16/3/1 14/3/1 15/3/1
f 17/1/1 16/1/1 15/1/1
f 18/1/1 16/1/1 17/1/1
f 21/2/1 20/2/1 19/2/1
f 22/2/1 20/2/1 21/2/1
f 25/1/1 24/1/1 23/1/1
f 26/1/1 24/1/1 25/1/1
f 29/2/1 28/2/1 27/2/1
f 30/2/1 28/2/1 29/2/1
f 33/1/1 32/1/1 31/1/1
f 34/1/1 32/1/1 33/1/1
f 37/2/1 36/2/1 35/2/1
f 38/2/1 36/2/1 37/2/1
f 39/1/1 38/1/1 37/1/1
f 40/1/1 38/1/1 39/1/1
f 41/4/1 40/4/1 39/4/1
f 42/4/1 40/4/1 41/4/1
f 43/6/1 42/6/1 41/6/1
f 44/6/1 42/6/1 43/6/1
f 47/2/1 46/2/1 45/2/1
f 48/2/1 46/2/1 47/2/1
f 51/3/1 50/3/1 49/3/1
f 52/3/1 50/3/1 51/3/1
f 55/2/1 54/2/1 53/2/1
f 56/2/1 54/2/1 55/2/1
f 59/3/1 58/3/1 57/3/1
f 60/3/1 58/3/1 59/3/1
f 63/2/1 62/2/1 61/2/1
f 64/2/1 62/2/1 63/2/1
f 67/2/1 66/2/1 65/2/1
f 68/2/1 66/2/1 67/2/1
f 71/1/1 70/1/1 69/1/1
f 72/1/1 70/1/1 71/1/1
f 75/2/1 74/2/1 73/2/1
f 76/2/1 74/2/1 75/2/1
f 79/1/1 78/1/1 77/1/1
f 80/1/1 78/1/1 79/1/1
f 83/3/1 82/3/1 81/3/1
f 84/3/1 82/3/1 83/3/1
f 85/3/2 86/3/2 87/3/2
f 87/3/2 86/3/2 88/3/2
f 89/3/2 90/3/2 91/3/2
f 91/3/2 90/3/2 92/3/2
f 93/2/2 94/2/2 95/2/2
f 95/2/2 94/2/2 96/2/2
f 97/3/2 98/3/2 99/3/2
f 99/3/2 98/3/2 100/3/2
f 101/2/2 102/2/2 103/2/2
f 103/2/2 102/2/2 104/2/2
f 105/2/2 106/2/2 107/2/2
f 107/2/2 106/2/2 108/2/2
f 109/2/2 110/2/2 111/2/2
f 111/2/2 110/2/2 112/2/2
f 113/2/2 114/2/2 115/2/2
f 115/2/2 114/2/2 116/2/2
f 117/2/2 118/2/2 119/2/2
f 119/2/2 118/2/2 120/2/2
f 119/6/2 120/6/2 121/6/2
f 121/6/2 120/6/2 122/6/2
f 123/2/2 124/2/2 125/2/2
f 125/2/2 124/2/2 126/2/2
f 127/1/2 128/1/2 129/1/2
f 129/1/2 128/1/2 130/1/2
f 131/2/2 132/2/2 133/2/2
f 133/2/2 132/2/2 134/2/2
f 133/3/2 134/3/2 135/3/2
f 135/3/2 134/3/2 136/3/2
f 135/1/2 136/1/2 137/1/2
f 137/1/2 136/1/2 138/1/2
f 139/2/2 140/2/2 141/2/2
f 141/2/2 140/2/2 142/2/2
f 141/3/2 142/3/2 143/3/2
f 143/3/2 142/3/2 144/3/2
f 143/1/2 144/1/2 145/1/2
f 145/1/2 144/1/2 146/1/2
f 147/2/2 148/2/2 149/2/2
f 149/2/2 148/2/2 150/2/2
f 151/1/2 152/1/2 153/1/2
f 153/1/2 152/1/2 154/1/2
f 155/2/2 156/2/2 157/2/2
f 157/2/2 156/2/2 158/2/2
f 157/3/2 158/3/2 159/3/2
f 159/3/2 158/3/2 160/3/2
f 161/3/2 162/3/2 163/3/2
f 163/3/2 162/3/2 164/3/2
f 163/1/2 164/1/2 165/1/2
f 165/1/2 164/1/2 166/1/2
f 167/2/2 168/2/2 169/2/2
f 169/2/2 168/2/2 170/2/2
f 169/1/2 170/1/2 171/1/2
f 171/1/2 170/1/2 172/1/2
f 178/2/3 174/2/3 173/2/3
f 179/1/3 175/1/3 174/1/3
f 179/2/3 174/2/3 178/2/3
f 180/1/3 175/1/3 179/1/3
f 184/2/3 177/2/3 176/2/3
f 185/3/3 178/3/3 177/3/3
f 185/3/3 179/3/3 178/3/3
f 185/2/3 177/2/3 184/2/3
f 185/3/3 180/3/3 179/3/3
f 185/3/3 181/3/3 180/3/3
f 186/1/3 182/1/3 181/1/3
f 186/3/3 181/3/3 185/3/3
f 187/1/3 182/1/3 186/1/3
f 189/3/3 185/3/3 184/3/3
f 189/3/3 186/3/3 185/3/3
f 189/3/3 187/3/3 186/3/3
f 190/3/3 187/3/3 189/3/3
f 191/3/3 187/3/3 190/3/3
f 193/2/3 184/2/3 183/2/3
f 194/3/3 189/3/3 184/3/3
f 194/2/3 184/2/3 193/2/3
f 195/3/3 189/3/3 194/3/3
f 196/3/3 189/3/3 195/3/3
f 197/2/3 191/2/3 190/2/3
f 198/3/3 187/3/3 191/3/3
f 198/2/3 191/2/3 197/2/3
f 199/3/3 187/3/3 198/3/3
f 200/1/3 188/1/3 187/1/3
f 200/3/3 187/3/3 199/3/3
f 201/1/3 188/1/3 200/1/3
f 207/2/3 193/2/3 192/2/3
f 208/3/3 194/3/3 193/3/3
f 208/3/3 195/3/3 194/3/3
f 209/3/3 195/3/3 208/3/3
f 210/2/3 199/2/3 198/2/3
f 211/3/3 201/3/3 200/3/3
f 211/2/3 199/2/3 210/2/3
f 211/3/3 200/3/3 199/3/3
f 212/3/3 201/3/3 211/3/3
f 214/2/3 204/2/3 203/2/3
f 215/1/3 205/1/3 204/1/3
f 215/2/3 204/2/3 214/2/3
f 216/4/3 206/4/3 205/4/3
f 216/1/3 205/1/3 215/1/3
f 217/6/3 207/6/3 206/6/3
f 217/4/3 206/4/3 216/4/3
f 218/2/3 214/2/3 213/2/3
f 219/3/3 215/3/3 214/3/3
f 219/2/3 214/2/3 218/2/3
f 219/3/3 216/3/3 215/3/3
f 220/5/3 217/5/3 216/5/3
f 220/3/3 216/3/3 219/3/3
f 221/6/3 207/6/3 217/6/3
f 221/5/3 217/5/3 220/5/3
f 222/2/3 220/2/3 219/2/3
f 223/2/3 220/2/3 222/2/3
f 224/2/3 220/2/3 223/2/3
f 225/2/3 220/2/3 224/2/3
f 226/2/3 220/2/3 225/2/3
f 227/2/3 220/2/3 226/2/3
f 228/2/3 220/2/3 227/2/3
f 229/6/3 221/6/3 220/6/3
f 229/2/3 220/2/3 228/2/3
f 230/6/3 207/6/3 221/6/3
f 230/6/3 221/6/3 229/6/3
f 230/2/3 193/2/3 207/2/3
f 231/3/3 208/3/3 193/3/3
f 234/2/3 212/2/3 211/2/3
f 235/3/3 201/3/3 212/3/3
f 235/2/3 212/2/3 234/2/3
f 236/2/3 193/2/3 230/2/3
f 237/3/3 232/3/3 231/3/3
f 237/2/3 193/2/3 236/2/3
f 237/3/3 231/3/3 193/3/3
f 238/3/3 232/3/3 237/3/3
f 239/3/3 232/3/3 238/3/3
f 242/2/3 234/2/3 233/2/3
f 243/3/3 235/3/3 234/3/3
f 243/2/3 234/2/3 242/2/3
f 244/3/3 201/3/3 235/3/3
f 244/3/3 235/3/3 243/3/3
f 245/1/3 202/1/3 201/1/3
f 245/3/3 201/3/3 244/3/3
f 246/1/3 202/1/3 245/1/3
f 248/2/3 224/2/3 223/2/3
f 249/1/3 225/1/3 224/1/3
f 249/2/3 224/2/3 248/2/3
f 250/1/3 225/1/3 249/1/3
f 253/2/3 227/2/3 226/2/3
f 254/1/3 228/1/3 227/1/3
f 254/2/3 227/2/3 253/2/3
f 255/1/3 228/1/3 254/1/3
f 257/3/3 240/3/3 239/3/3
f 257/3/3 239/3/3 238/3/3
f 258/2/3 242/2/3 241/2/3
f 259/3/3 244/3/3 243/3/3
f 259/3/3 243/3/3 242/3/3
f 259/2/3 242/2/3 258/2/3
f 260/2/3 248/2/3 247/2/3
f 261/3/3 249/3/3 248/3/3
f 261/2/3 248/2/3 260/2/3
f 261/3/3 250/3/3 249/3/3
f 262/1/3 251/1/3 250/1/3
f 262/3/3 250/3/3 261/3/3
f 263/1/3 251/1/3 262/1/3
f 264/2/3 253/2/3 252/2/3
f 265/3/3 255/3/3 254/3/3
f 265/2/3 253/2/3 264/2/3
f 265/3/3 254/3/3 253/3/3
f 266/1/3 256/1/3 255/1/3
f 266/3/3 255/3/3 265/3/3
f 267/1/3 256/1/3 266/1/3
f 268/2/3 238/2/3 237/2/3
f 269/3/3 258/3/3 257/3/3
f 269/2/3 238/2/3 268/2/3
f 269/3/3 257/3/3 238/3/3
f 269/3/3 259/3/3 258/3/3
f 270/3/3 259/3/3 269/3/3
f 271/3/3 244/3/3 259/3/3
f 271/3/3 259/3/3 270/3/3
f 272/1/3 245/1/3 244/1/3
f 272/3/3 244/3/3 271/3/3
f 273/1/3 245/1/3 272/1/3
f 274/2/3 270/2/3 269/2/3
f 275/3/3 271/3/3 270/3/3
f 275/2/3 270/2/3 274/2/3
f 276/3/3 271/3/3 275/3/3
f 277/3/3 271/3/3 276/3/3
f 278/3/3 271/3/3 277/3/3
f 279/1/3 272/1/3 271/1/3
f 279/3/3 271/3/3 278/3/3
f 280/1/3 272/1/3 279/1/3
f 281/2/3 277/2/3 276/2/3
f 282/1/3 278/1/3 277/1/3
f 282/2/3 277/2/3 281/2/3
f 283/1/3 278/1/3 282/1/3
f 284/2/4 285/2/4 289/2/4
f 285/1/4 286/1/4 290/1/4
f 289/2/4 285/2/4 290/2/4
f 290/1/4 286/1/4 291/1/4
f 287/2/4 288/2/4 295/2/4
f 288/3/4 289/3/4 296/3/4
f 289/3/4 290/3/4 296/3/4
f 295/2/4 288/2/4 296/2/4
f 290/3/4 291/3/4 296/3/4
f 291/3/4 292/3/4 296/3/4
f 292/1/4 293/1/4 297/1/4
f 296/3/4 292/3/4 297/3/4
f 297/1/4 293/1/4 298/1/4
f 295/3/4 296/3/4 300/3/4
f 296/3/4 297/3/4 300/3/4
f 297/3/4 298/3/4 300/3/4
f 300/3/4 298/3/4 301/3/4
f 301/3/4 298/3/4 302/3/4
f 294/2/4 295/2/4 304/2/4
f 295/3/4 300/3/4 305/3/4
f 304/2/4 295/2/4 305/2/4
f 305/3/4 300/3/4 306/3/4
f 306/3/4 300/3/4 307/3/4
f 301/2/4 302/2/4 308/2/4
f 302/3/4 298/3/4 309/3/4
f 308/2/4 302/2/4 309/2/4
f 309/3/4 298/3/4 310/3/4
f 298/1/4 299/1/4 311/1/4
f 310/3/4 298/3/4 311/3/4
f 311/1/4 299/1/4 312/1/4
f 303/2/4 304/2/4 318/2/4
f 304/3/4 305/3/4 319/3/4
f 305/3/4 306/3/4 319/3/4
f 319/3/4 306/3/4 320/3/4
f 309/2/4 310/2/4 321/2/4
f 311/3/4 312/3/4 322/3/4
f 321/2/4 310/2/4 322/2/4
f 310/3/4 311/3/4 322/3/4
f 322/3/4 312/3/4 323/3/4
f 314/2/4 315/2/4 325/2/4
f 315/1/4 316/1/4 326/1/4
f 325/2/4 315/2/4 326/2/4
f 316/4/4 317/4/4 327/4/4
f 326/1/4 316/1/4 327/1/4
f 317/6/4 318/6/4 328/6/4
f 327/4/4 317/4/4 328/4/4
f 324/2/4 325/2/4 329/2/4
f 325/3/4 326/3/4 330/3/4
f 329/2/4 325/2/4 330/2/4
f 326/3/4 327/3/4 330/3/4
f 327/5/4 328/5/4 331/5/4
f 330/3/4 327/3/4 331/3/4
f 328/6/4 318/6/4 332/6/4
f 331/5/4 328/5/4 332/5/4
f 330/2/4 331/2/4 333/2/4
f 333/2/4 331/2/4 334/2/4
f 334/2/4 331/2/4 335/2/4
f 335/2/4 331/2/4 336/2/4
f 336/2/4 331/2/4 337/2/4
f 337/2/4 331/2/4 338/2/4
f 338/2/4 331/2/4 339/2/4
f 331/6/4 332/6/4 340/6/4
f 339/2/4 331/2/4 340/2/4
f 332/6/4 318/6/4 341/6/4
f 340/6/4 332/6/4 341/6/4
f 318/2/4 304/2/4 341/2/4
f 304/3/4 319/3/4 342/3/4
f 322/2/4 323/2/4 345/2/4
f 323/3/4 312/3/4 346/3/4
f 345/2/4 323/2/4 346/2/4
f 341/2/4 304/2/4 347/2/4
f 342/3/4 343/3/4 348/3/4
f 347/2/4 304/2/4 348/2/4
f 304/3/4 342/3/4 348/3/4
f 348/3/4 343/3/4 349/3/4
f 349/3/4 343/3/4 350/3/4
f 344/2/4 345/2/4 353/2/4
f 345/3/4 346/3/4 354/3/4
f 353/2/4 345/2/4 354/2/4
f 346/3/4 312/3/4 355/3/4
f 354/3/4 346/3/4 355/3/4
f 312/1/4 313/1/4 356/1/4
f 355/3/4 312/3/4 356/3/4
f 356/1/4 313/1/4 357/1/4
f 334/2/4 335/2/4 359/2/4
f 335/1/4 336/1/4 360/1/4
f 359/2/4 335/2/4 360/2/4
f 360/1/4 336/1/4 361/1/4
f 337/2/4 338/2/4 364/2/4
f 338/1/4 339/1/4 365/1/4
f 364/2/4 338/2/4 365/2/4
f 365/1/4 339/1/4 366/1/4
f 350/3/4 351/3/4 368/3/4
f 349/3/4 350/3/4 368/3/4
f 352/2/4 353/2/4 369/2/4
f 354/3/4 355/3/4 370/3/4
f 353/3/4 354/3/4 370/3/4
f 369/2/4 353/2/4 370/2/4
f 358/2/4 359/2/4 371/2/4
f 359/3/4 360/3/4 372/3/4
f 371/2/4 359/2/4 372/2/4
f 360/3/4 361/3/4 372/3/4
f 361/1/4 362/1/4 373/1/4
f 372/3/4 361/3/4 373/3/4
f 373/1/4 362/1/4 374/1/4
f 363/2/4 364/2/4 375/2/4
f 365/3/4 366/3/4 376/3/4
f 375/2/4 364/2/4 376/2/4
f 364/3/4 365/3/4 376/3/4
f 366/1/4 367/1/4 377/1/4
f 376/3/4 366/3/4 377/3/4
f 377/1/4 367/1/4 378/1/4
f 348/2/4 349/2/4 379/2/4
f 368/3/4 369/3/4 380/3/4
f 379/2/4 349/2/4 380/2/4
f 349/3/4 368/3/4 380/3/4
f 369/3/4 370/3/4 380/3/4
f 380/3/4 370/3/4 381/3/4
f 370/3/4 355/3/4 382/3/4
f 381/3/4 370/3/4 382/3/4
f 355/1/4 356/1/4 383/1/4
f 382/3/4 355/3/4 383/3/4
f 383/1/4 356/1/4 384/1/4
f 380/2/4 381/2/4 385/2/4
f 381/3/4 382/3/4 386/3/4
f 385/2/4 381/2/4 386/2/4
f 386/3/4 382/3/4 387/3/4
f 387/3/4 382/3/4 388/3/4
f 388/3/4 382/3/4 389/3/4
f 382/1/4 383/1/4 390/1/4
f 389/3/4 382/3/4 390/3/4
f 390/1/4 383/1/4 391/1/4
f 387/2/4 388/2/4 392/2/4
f 388/1/4 389/1/4 393/1/4
f 392/2/4 388/2/4 393/2/4
f 393/1/4 389/1/4 394/1/4
f 397/2/5 396/2/5 395/2/5
f 398/2/5 396/2/5 397/2/5
f 403/2/5 400/2/5 399/2/5
f 404/2/5 400/2/5 403/2/5
f 405/2/5 402/2/5 401/2/5
f 406/2/5 402/2/5 405/2/5
f 409/2/5 408/2/5 407/2/5
f 410/2/5 408/2/5 409/2/5
f 413/2/5 412/2/5 411/2/5
f 414/2/5 412/2/5 413/2/5
f 417/2/5 416/2/5 415/2/5
f 418/2/5 416/2/5 417/2/5
f 421/2/5 420/2/5 419/2/5
f 422/2/5 420/2/5 421/2/5
f 427/2/5 424/2/5 423/2/5
f 428/2/5 424/2/5 427/2/5
f 429/2/5 426/2/5 425/2/5
f 430/2/5 426/2/5 429/2/5
f 435/2/5 432/2/5 431/2/5
f 436/2/5 432/2/5 435/2/5
f 437/2/5 434/2/5 433/2/5
f 438/2/5 434/2/5 437/2/5
f 443/2/5 440/2/5 439/2/5
f 444/2/5 440/2/5 443/2/5
f 445/2/5 442/2/5 441/2/5
f 446/2/5 442/2/5 445/2/5
f 451/2/5 448/2/5 447/2/5
f 452/2/5 448/2/5 451/2/5
f 453/2/5 450/2/5 449/2/5
f 454/2/5 450/2/5 453/2/5
f 459/2/5 456/2/5 455/2/5
f 460/2/5 456/2/5 459/2/5
f 461/2/5 458/2/5 457/2/5
f 462/2/5 458/2/5 461/2/5
f 467/2/5 464/2/5 463/2/5
f 468/2/5 464/2/5 467/2/5
f 469/2/5 466/2/5 465/2/5
f 470/2/5 466/2/5 469/2/5
f 473/2/5 472/2/5 471/2/5
f 474/2/5 472/2/5 473/2/5
f 475/1/6 476/1/6 477/1/6
f 477/1/6 476/1/6 478/1/6
f 479/1/6 480/1/6 481/1/6
f 481/1/6 480/1/6 482/1/6
f 483/1/6 484/1/6 485/1/6
f 485/1/6 484/1/6 486/1/6
f 487/1/6 488/1/6 489/1/6
f 489/1/6 488/1/6 490/1/6
f 491/3/6 492/3/6 493/3/6
f 493/3/6 492/3/6 494/3/6
f 495/3/6 496/3/6 499/3/6
f 499/3/6 496/3/6 500/3/6
f 497/3/6 498/3/6 501/3/6
f 501/3/6 498/3/6 502/3/6
f 503/3/6 504/3/6 507/3/6
f 507/3/6 504/3/6 508/3/6
f 505/3/6 506/3/6 509/3/6
f 509/3/6 506/3/6 510/3/6
f 511/1/6 512/1/6 515/1/6
f 515/1/6 512/1/6 516/1/6
f 513/1/6 514/1/6 517/1/6
f 517/1/6 514/1/6 518/1/6
f 519/1/6 520/1/6 523/1/6
f 523/1/6 520/1/6 524/1/6
f 521/1/6 522/1/6 525/1/6
f 525/1/6 522/1/6 526/1/6
f 527/1/6 528/1/6 531/1/6
f 531/1/6 528/1/6 532/1/6
f 529/1/6 530/1/6 533/1/6
f 533/1/6 530/1/6 534/1/6
f 535/1/6 536/1/6 537/1/6
f 537/1/6 536/1/6 538/1/6
