# MagicaVoxel @ Ephtracy

# group
g mesa_jantar

# material
mtllib mesa_jantar.mtl
usemtl palette

# normals
vn -1 0 0
vn 1 0 0
vn 0 0 1
vn 0 0 -1
vn 0 -1 0
vn 0 1 0

# texcoords
vt 0.0644531 0.5
vt 0.0683594 0.5

# verts
v -51 0 26
v -51 0 21
v -51 0 -21
v -51 0 -26
v -51 1 26
v -51 1 25
v -51 1 22
v -51 1 21
v -51 1 -21
v -51 1 -22
v -51 1 -25
v -51 1 -26
v -51 32 25
v -51 32 22
v -51 32 -22
v -51 32 -25
v -51 33 25
v -51 33 22
v -51 33 -22
v -51 33 -25
v -51 34 25
v -51 34 22
v -51 34 -22
v -51 34 -25
v -51 35 26
v -51 35 21
v -51 35 -21
v -51 35 -26
v -50 1 25
v -50 1 22
v -50 1 -22
v -50 1 -25
v -50 25 21
v -50 25 -21
v -50 26 21
v -50 26 -21
v -50 31 25
v -50 31 22
v -50 31 -22
v -50 31 -25
v -50 32 25
v -50 32 22
v -50 32 21
v -50 32 -21
v -50 32 -22
v -50 32 -25
v -50 33 25
v -50 33 22
v -50 33 21
v -50 33 -21
v -50 33 -22
v -50 33 -25
v -50 34 25
v -50 34 22
v -50 34 -22
v -50 34 -25
v -50 35 21
v -50 35 -21
v -49 32 21
v -49 32 -21
v -49 33 21
v -49 33 -21
v -49 35 24
v -49 35 -24
v -49 36 24
v -49 36 -24
v -47 1 26
v -47 1 25
v -47 1 -25
v -47 1 -26
v -47 31 25
v -47 31 -25
v -47 32 26
v -47 32 25
v -47 32 -25
v -47 32 -26
v -47 33 26
v -47 33 25
v -47 33 -25
v -47 33 -26
v -47 34 26
v -47 34 25
v -47 34 -25
v -47 34 -26
v 46 0 26
v 46 0 21
v 46 0 -21
v 46 0 -26
v 46 1 26
v 46 1 21
v 46 1 -21
v 46 1 -26
v 46 25 21
v 46 25 -21
v 46 26 21
v 46 26 -21
v 46 29 25
v 46 29 -25
v 46 30 25
v 46 30 -25
v 46 32 25
v 46 32 24
v 46 32 23
v 46 32 21
v 46 32 -21
v 46 32 -23
v 46 32 -24
v 46 33 25
v 46 33 24
v 46 33 -24
v 46 33 -25
v 46 34 25
v 46 35 26
v 46 35 25
v 46 35 -25
v 46 35 -26
v 50 1 26
v 50 1 25
v 50 1 -25
v 50 1 -26
v 50 31 25
v 50 31 -25
v 50 32 26
v 50 32 25
v 50 32 -25
v 50 32 -26
v 50 33 26
v 50 33 25
v 50 33 -25
v 50 33 -26
v 50 34 26
v 50 34 25
v 50 34 -25
v 50 34 -26
v -50 1 26
v -50 1 25
v -50 1 -25
v -50 1 -26
v -50 31 25
v -50 31 -25
v -50 32 26
v -50 32 25
v -50 32 -25
v -50 32 -26
v -50 33 26
v -50 33 25
v -50 33 -25
v -50 33 -26
v -50 34 26
v -50 34 25
v -50 34 -25
v -50 34 -26
v -46 0 26
v -46 0 21
v -46 0 -21
v -46 0 -26
v -46 1 26
v -46 1 21
v -46 1 -21
v -46 1 -26
v -46 25 21
v -46 25 -21
v -46 26 21
v -46 26 -21
v -46 29 25
v -46 29 -25
v -46 30 25
v -46 30 -25
v -46 32 25
v -46 32 24
v -46 32 23
v -46 32 21
v -46 32 -21
v -46 32 -23
v -46 32 -24
v -46 33 25
v -46 33 24
v -46 33 -24
v -46 33 -25
v -46 34 25
v -46 35 26
v -46 35 25
v -46 35 -25
v -46 35 -26
v 47 1 26
v 47 1 25
v 47 1 -25
v 47 1 -26
v 47 31 25
v 47 31 -25
v 47 32 26
v 47 32 25
v 47 32 -25
v 47 32 -26
v 47 33 26
v 47 33 25
v 47 33 -25
v 47 33 -26
v 47 34 26
v 47 34 25
v 47 34 -25
v 47 34 -26
v 49 32 21
v 49 32 -21
v 49 33 21
v 49 33 -21
v 49 35 24
v 49 35 -24
v 49 36 24
v 49 36 -24
v 50 1 25
v 50 1 22
v 50 1 -22
v 50 1 -25
v 50 25 21
v 50 25 -21
v 50 26 21
v 50 26 -21
v 50 31 25
v 50 31 22
v 50 31 -22
v 50 31 -25
v 50 32 25
v 50 32 22
v 50 32 21
v 50 32 -21
v 50 32 -22
v 50 32 -25
v 50 33 25
v 50 33 22
v 50 33 21
v 50 33 -21
v 50 33 -22
v 50 33 -25
v 50 34 25
v 50 34 22
v 50 34 -22
v 50 34 -25
v 50 35 21
v 50 35 -21
v 51 0 26
v 51 0 21
v 51 0 -21
v 51 0 -26
v 51 1 26
v 51 1 25
v 51 1 22
v 51 1 21
v 51 1 -21
v 51 1 -22
v 51 1 -25
v 51 1 -26
v 51 32 25
v 51 32 22
v 51 32 -22
v 51 32 -25
v 51 33 25
v 51 33 22
v 51 33 -22
v 51 33 -25
v 51 34 25
v 51 34 22
v 51 34 -22
v 51 34 -25
v 51 35 26
v 51 35 21
v 51 35 -21
v 51 35 -26
v -51 0 26
v -51 1 26
v -51 35 26
v -50 1 26
v -50 32 26
v -50 33 26
v -50 34 26
v -47 1 26
v -47 32 26
v -47 33 26
v -47 34 26
v -46 0 26
v -46 1 26
v -46 35 26
v 46 0 26
v 46 1 26
v 46 35 26
v 47 1 26
v 47 32 26
v 47 33 26
v 47 34 26
v 50 1 26
v 50 32 26
v 50 33 26
v 50 34 26
v 51 0 26
v 51 1 26
v 51 35 26
v -50 1 25
v -50 31 25
v -50 32 25
v -50 33 25
v -50 34 25
v -47 1 25
v -47 31 25
v -47 32 25
v -47 33 25
v -47 34 25
v -46 29 25
v -46 30 25
v -46 33 25
v -46 34 25
v -46 35 25
v 46 29 25
v 46 30 25
v 46 33 25
v 46 34 25
v 46 35 25
v 47 1 25
v 47 31 25
v 47 32 25
v 47 33 25
v 47 34 25
v 50 1 25
v 50 31 25
v 50 32 25
v 50 33 25
v 50 34 25
v -49 35 24
v -49 36 24
v -46 32 24
v -46 33 24
v 46 32 24
v 46 33 24
v 49 35 24
v 49 36 24
v -51 1 22
v -51 32 22
v -51 33 22
v -51 34 22
v -50 1 22
v -50 31 22
v -50 32 22
v -50 33 22
v -50 34 22
v 50 1 22
v 50 31 22
v 50 32 22
v 50 33 22
v 50 34 22
v 51 1 22
v 51 32 22
v 51 33 22
v 51 34 22
v -51 0 -21
v -51 1 -21
v -51 35 -21
v -50 25 -21
v -50 26 -21
v -50 32 -21
v -50 33 -21
v -50 35 -21
v -49 32 -21
v -49 33 -21
v -46 0 -21
v -46 1 -21
v -46 25 -21
v 46 0 -21
v 46 1 -21
v 46 25 -21
v 49 32 -21
v 49 33 -21
v 50 25 -21
v 50 26 -21
v 50 32 -21
v 50 33 -21
v 50 35 -21
v 51 0 -21
v 51 1 -21
v 51 35 -21
v -51 1 -25
v -51 32 -25
v -51 33 -25
v -51 34 -25
v -50 1 -25
v -50 31 -25
v -50 32 -25
v -50 33 -25
v -50 34 -25
v 50 1 -25
v 50 31 -25
v 50 32 -25
v 50 33 -25
v 50 34 -25
v 51 1 -25
v 51 32 -25
v 51 33 -25
v 51 34 -25
v -51 1 25
v -51 32 25
v -51 33 25
v -51 34 25
v -50 1 25
v -50 31 25
v -50 32 25
v -50 33 25
v -50 34 25
v 50 1 25
v 50 31 25
v 50 32 25
v 50 33 25
v 50 34 25
v 51 1 25
v 51 32 25
v 51 33 25
v 51 34 25
v -51 0 21
v -51 1 21
v -51 35 21
v -50 25 21
v -50 26 21
v -50 32 21
v -50 33 21
v -50 35 21
v -49 32 21
v -49 33 21
v -46 0 21
v -46 1 21
v -46 25 21
v 46 0 21
v 46 1 21
v 46 25 21
v 49 32 21
v 49 33 21
v 50 25 21
v 50 26 21
v 50 32 21
v 50 33 21
v 50 35 21
v 51 0 21
v 51 1 21
v 51 35 21
v -51 1 -22
v -51 32 -22
v -51 33 -22
v -51 34 -22
v -50 1 -22
v -50 31 -22
v -50 32 -22
v -50 33 -22
v -50 34 -22
v 50 1 -22
v 50 31 -22
v 50 32 -22
v 50 33 -22
v 50 34 -22
v 51 1 -22
v 51 32 -22
v 51 33 -22
v 51 34 -22
v -49 35 -24
v -49 36 -24
v -46 32 -24
v -46 33 -24
v 46 32 -24
v 46 33 -24
v 49 35 -24
v 49 36 -24
v -50 1 -25
v -50 31 -25
v -50 32 -25
v -50 33 -25
v -50 34 -25
v -47 1 -25
v -47 31 -25
v -47 32 -25
v -47 33 -25
v -47 34 -25
v -46 29 -25
v -46 30 -25
v -46 33 -25
v -46 35 -25
v 46 29 -25
v 46 30 -25
v 46 33 -25
v 46 35 -25
v 47 1 -25
v 47 31 -25
v 47 32 -25
v 47 33 -25
v 47 34 -25
v 50 1 -25
v 50 31 -25
v 50 32 -25
v 50 33 -25
v 50 34 -25
v -51 0 -26
v -51 1 -26
v -51 35 -26
v -50 1 -26
v -50 32 -26
v -50 33 -26
v -50 34 -26
v -47 1 -26
v -47 32 -26
v -47 33 -26
v -47 34 -26
v -46 0 -26
v -46 1 -26
v -46 35 -26
v 46 0 -26
v 46 1 -26
v 46 35 -26
v 47 1 -26
v 47 32 -26
v 47 33 -26
v 47 34 -26
v 50 1 -26
v 50 32 -26
v 50 33 -26
v 50 34 -26
v 51 0 -26
v 51 1 -26
v 51 35 -26
v -51 0 26
v -46 0 26
v 46 0 26
v 51 0 26
v -51 0 21
v -46 0 21
v 46 0 21
v 51 0 21
v -51 0 -21
v -46 0 -21
v 46 0 -21
v 51 0 -21
v -51 0 -26
v -46 0 -26
v 46 0 -26
v 51 0 -26
v -50 25 21
v -46 25 21
v 46 25 21
v 50 25 21
v -50 25 -21
v -46 25 -21
v 46 25 -21
v 50 25 -21
v -46 29 25
v 46 29 25
v -46 29 -25
v 46 29 -25
v -50 32 26
v -47 32 26
v 47 32 26
v 50 32 26
v -51 32 25
v -50 32 25
v -47 32 25
v 47 32 25
v 50 32 25
v 51 32 25
v -46 32 24
v 46 32 24
v -46 32 23
v 46 32 23
v -51 32 22
v -50 32 22
v 50 32 22
v 51 32 22
v -46 32 21
v 46 32 21
v -46 32 -21
v 46 32 -21
v -51 32 -22
v -50 32 -22
v 50 32 -22
v 51 32 -22
v -46 32 -23
v 46 32 -23
v -46 32 -24
v 46 32 -24
v -51 32 -25
v -50 32 -25
v -47 32 -25
v 47 32 -25
v 50 32 -25
v 51 32 -25
v -50 32 -26
v -47 32 -26
v 47 32 -26
v 50 32 -26
v -46 33 25
v 46 33 25
v -46 33 24
v 46 33 24
v -50 33 21
v -49 33 21
v 49 33 21
v 50 33 21
v -50 33 -21
v -49 33 -21
v 49 33 -21
v 50 33 -21
v -46 33 -24
v 46 33 -24
v -46 33 -25
v 46 33 -25
v -50 34 26
v -47 34 26
v 47 34 26
v 50 34 26
v -51 34 25
v -50 34 25
v -47 34 25
v 47 34 25
v 50 34 25
v 51 34 25
v -51 34 22
v -50 34 22
v 50 34 22
v 51 34 22
v -51 34 -22
v -50 34 -22
v 50 34 -22
v 51 34 -22
v -51 34 -25
v -50 34 -25
v -47 34 -25
v 47 34 -25
v 50 34 -25
v 51 34 -25
v -50 34 -26
v -47 34 -26
v 47 34 -26
v 50 34 -26
v -50 1 26
v -47 1 26
v 47 1 26
v 50 1 26
v -51 1 25
v -50 1 25
v -47 1 25
v 47 1 25
v 50 1 25
v 51 1 25
v -51 1 22
v -50 1 22
v 50 1 22
v 51 1 22
v -51 1 -22
v -50 1 -22
v 50 1 -22
v 51 1 -22
v -51 1 -25
v -50 1 -25
v -47 1 -25
v 47 1 -25
v 50 1 -25
v 51 1 -25
v -50 1 -26
v -47 1 -26
v 47 1 -26
v 50 1 -26
v -46 30 25
v 46 30 25
v -46 30 -25
v 46 30 -25
v -50 32 21
v -49 32 21
v 49 32 21
v 50 32 21
v -50 32 -21
v -49 32 -21
v 49 32 -21
v 50 32 -21
v -50 33 26
v -47 33 26
v 47 33 26
v 50 33 26
v -51 33 25
v -50 33 25
v -47 33 25
v 47 33 25
v 50 33 25
v 51 33 25
v -51 33 22
v -50 33 22
v 50 33 22
v 51 33 22
v -51 33 -22
v -50 33 -22
v 50 33 -22
v 51 33 -22
v -51 33 -25
v -50 33 -25
v -47 33 -25
v 47 33 -25
v 50 33 -25
v 51 33 -25
v -50 33 -26
v -47 33 -26
v 47 33 -26
v 50 33 -26
v -51 35 26
v -46 35 26
v 46 35 26
v 51 35 26
v -46 35 25
v 46 35 25
v -49 35 24
v 49 35 24
v -51 35 21
v -50 35 21
v 50 35 21
v 51 35 21
v -51 35 -21
v -50 35 -21
v 50 35 -21
v 51 35 -21
v -49 35 -24
v 49 35 -24
v -46 35 -25
v 46 35 -25
v -51 35 -26
v -46 35 -26
v 46 35 -26
v 51 35 -26
v -49 36 24
v 49 36 24
v -49 36 -24
v 49 36 -24

# faces
f 5/2/1 2/2/1 1/2/1
f 6/2/1 2/2/1 5/2/1
f 7/2/1 2/2/1 6/2/1
f 8/2/1 2/2/1 7/2/1
f 9/2/1 4/2/1 3/2/1
f 10/2/1 4/2/1 9/2/1
f 11/2/1 4/2/1 10/2/1
f 12/2/1 4/2/1 11/2/1
f 13/1/1 6/1/1 5/1/1
f 14/1/1 8/1/1 7/1/1
f 15/1/1 10/1/1 9/1/1
f 16/1/1 12/1/1 11/1/1
f 17/1/1 13/1/1 5/1/1
f 17/1/1 14/1/1 13/1/1
f 18/1/1 8/1/1 14/1/1
f 18/1/1 14/1/1 17/1/1
f 19/1/1 16/1/1 15/1/1
f 19/1/1 15/1/1 9/1/1
f 20/1/1 12/1/1 16/1/1
f 20/1/1 16/1/1 19/1/1
f 21/1/1 17/1/1 5/1/1
f 22/1/1 8/1/1 18/1/1
f 23/1/1 19/1/1 9/1/1
f 24/1/1 12/1/1 20/1/1
f 25/1/1 21/1/1 5/1/1
f 25/1/1 22/1/1 21/1/1
f 26/1/1 8/1/1 22/1/1
f 26/1/1 22/1/1 25/1/1
f 27/1/1 24/1/1 23/1/1
f 27/1/1 23/1/1 9/1/1
f 28/1/1 12/1/1 24/1/1
f 28/1/1 24/1/1 27/1/1
f 35/2/1 34/2/1 33/2/1
f 36/2/1 34/2/1 35/2/1
f 37/1/1 30/1/1 29/1/1
f 38/1/1 30/1/1 37/1/1
f 39/1/1 32/1/1 31/1/1
f 40/1/1 32/1/1 39/1/1
f 41/2/1 38/2/1 37/2/1
f 42/2/1 38/2/1 41/2/1
f 43/1/1 36/1/1 35/1/1
f 44/1/1 36/1/1 43/1/1
f 45/2/1 40/2/1 39/2/1
f 46/2/1 40/2/1 45/2/1
f 53/2/1 48/2/1 47/2/1
f 54/2/1 48/2/1 53/2/1
f 55/2/1 52/2/1 51/2/1
f 56/2/1 52/2/1 55/2/1
f 57/1/1 50/1/1 49/1/1
f 58/1/1 50/1/1 57/1/1
f 61/2/1 60/2/1 59/2/1
f 62/2/1 60/2/1 61/2/1
f 65/2/1 64/2/1 63/2/1
f 66/2/1 64/2/1 65/2/1
f 71/1/1 68/1/1 67/1/1
f 72/1/1 70/1/1 69/1/1
f 73/1/1 71/1/1 67/1/1
f 74/1/1 71/1/1 73/1/1
f 75/1/1 70/1/1 72/1/1
f 76/1/1 70/1/1 75/1/1
f 81/1/1 78/1/1 77/1/1
f 82/1/1 78/1/1 81/1/1
f 83/1/1 80/1/1 79/1/1
f 84/1/1 80/1/1 83/1/1
f 89/2/1 86/2/1 85/2/1
f 90/2/1 86/2/1 89/2/1
f 91/2/1 88/2/1 87/2/1
f 92/2/1 88/2/1 91/2/1
f 93/1/1 90/1/1 89/1/1
f 94/1/1 92/1/1 91/1/1
f 95/1/1 93/1/1 89/1/1
f 95/2/1 94/2/1 93/2/1
f 96/1/1 92/1/1 94/1/1
f 96/2/1 94/2/1 95/2/1
f 97/1/1 95/1/1 89/1/1
f 97/1/1 96/1/1 95/1/1
f 98/1/1 92/1/1 96/1/1
f 98/1/1 96/1/1 97/1/1
f 99/1/1 97/1/1 89/1/1
f 100/1/1 92/1/1 98/1/1
f 101/1/1 99/1/1 89/1/1
f 101/1/1 100/1/1 99/1/1
f 102/1/1 100/1/1 101/1/1
f 103/1/1 100/1/1 102/1/1
f 104/1/1 100/1/1 103/1/1
f 105/1/1 100/1/1 104/1/1
f 106/1/1 100/1/1 105/1/1
f 107/1/1 100/1/1 106/1/1
f 108/1/1 101/1/1 89/1/1
f 108/2/1 102/2/1 101/2/1
f 109/2/1 102/2/1 108/2/1
f 110/1/1 100/1/1 107/1/1
f 111/1/1 92/1/1 100/1/1
f 111/1/1 100/1/1 110/1/1
f 112/1/1 108/1/1 89/1/1
f 113/1/1 112/1/1 89/1/1
f 114/1/1 112/1/1 113/1/1
f 115/1/1 92/1/1 111/1/1
f 116/1/1 92/1/1 115/1/1
f 121/1/1 118/1/1 117/1/1
f 122/1/1 120/1/1 119/1/1
f 123/1/1 121/1/1 117/1/1
f 124/1/1 121/1/1 123/1/1
f 125/1/1 120/1/1 122/1/1
f 126/1/1 120/1/1 125/1/1
f 131/1/1 128/1/1 127/1/1
f 132/1/1 128/1/1 131/1/1
f 133/1/1 130/1/1 129/1/1
f 134/1/1 130/1/1 133/1/1
f 135/1/2 136/1/2 139/1/2
f 137/1/2 138/1/2 140/1/2
f 135/1/2 139/1/2 141/1/2
f 141/1/2 139/1/2 142/1/2
f 140/1/2 138/1/2 143/1/2
f 143/1/2 138/1/2 144/1/2
f 145/1/2 146/1/2 149/1/2
f 149/1/2 146/1/2 150/1/2
f 147/1/2 148/1/2 151/1/2
f 151/1/2 148/1/2 152/1/2
f 153/2/2 154/2/2 157/2/2
f 157/2/2 154/2/2 158/2/2
f 155/2/2 156/2/2 159/2/2
f 159/2/2 156/2/2 160/2/2
f 157/1/2 158/1/2 161/1/2
f 159/1/2 160/1/2 162/1/2
f 157/1/2 161/1/2 163/1/2
f 161/2/2 162/2/2 163/2/2
f 162/1/2 160/1/2 164/1/2
f 163/2/2 162/2/2 164/2/2
f 157/1/2 163/1/2 165/1/2
f 163/1/2 164/1/2 165/1/2
f 164/1/2 160/1/2 166/1/2
f 165/1/2 164/1/2 166/1/2
f 157/1/2 165/1/2 167/1/2
f 166/1/2 160/1/2 168/1/2
f 157/1/2 167/1/2 169/1/2
f 167/1/2 168/1/2 169/1/2
f 169/1/2 168/1/2 170/1/2
f 170/1/2 168/1/2 171/1/2
f 171/1/2 168/1/2 172/1/2
f 172/1/2 168/1/2 173/1/2
f 173/1/2 168/1/2 174/1/2
f 174/1/2 168/1/2 175/1/2
f 157/1/2 169/1/2 176/1/2
f 169/2/2 170/2/2 176/2/2
f 176/2/2 170/2/2 177/2/2
f 175/1/2 168/1/2 178/1/2
f 168/1/2 160/1/2 179/1/2
f 178/1/2 168/1/2 179/1/2
f 157/1/2 176/1/2 180/1/2
f 157/1/2 180/1/2 181/1/2
f 181/1/2 180/1/2 182/1/2
f 179/1/2 160/1/2 183/1/2
f 183/1/2 160/1/2 184/1/2
f 185/1/2 186/1/2 189/1/2
f 187/1/2 188/1/2 190/1/2
f 185/1/2 189/1/2 191/1/2
f 191/1/2 189/1/2 192/1/2
f 190/1/2 188/1/2 193/1/2
f 193/1/2 188/1/2 194/1/2
f 195/1/2 196/1/2 199/1/2
f 199/1/2 196/1/2 200/1/2
f 197/1/2 198/1/2 201/1/2
f 201/1/2 198/1/2 202/1/2
f 203/2/2 204/2/2 205/2/2
f 205/2/2 204/2/2 206/2/2
f 207/2/2 208/2/2 209/2/2
f 209/2/2 208/2/2 210/2/2
f 215/2/2 216/2/2 217/2/2
f 217/2/2 216/2/2 218/2/2
f 211/1/2 212/1/2 219/1/2
f 219/1/2 212/1/2 220/1/2
f 213/1/2 214/1/2 221/1/2
f 221/1/2 214/1/2 222/1/2
f 219/2/2 220/2/2 223/2/2
f 223/2/2 220/2/2 224/2/2
f 217/1/2 218/1/2 225/1/2
f 225/1/2 218/1/2 226/1/2
f 221/2/2 222/2/2 227/2/2
f 227/2/2 222/2/2 228/2/2
f 229/2/2 230/2/2 235/2/2
f 235/2/2 230/2/2 236/2/2
f 233/2/2 234/2/2 237/2/2
f 237/2/2 234/2/2 238/2/2
f 231/1/2 232/1/2 239/1/2
f 239/1/2 232/1/2 240/1/2
f 241/2/2 242/2/2 245/2/2
f 245/2/2 242/2/2 246/2/2
f 246/2/2 242/2/2 247/2/2
f 247/2/2 242/2/2 248/2/2
f 243/2/2 244/2/2 249/2/2
f 249/2/2 244/2/2 250/2/2
f 250/2/2 244/2/2 251/2/2
f 251/2/2 244/2/2 252/2/2
f 245/1/2 246/1/2 253/1/2
f 247/1/2 248/1/2 254/1/2
f 249/1/2 250/1/2 255/1/2
f 251/1/2 252/1/2 256/1/2
f 245/1/2 253/1/2 257/1/2
f 253/1/2 254/1/2 257/1/2
f 254/1/2 248/1/2 258/1/2
f 257/1/2 254/1/2 258/1/2
f 255/1/2 256/1/2 259/1/2
f 249/1/2 255/1/2 259/1/2
f 256/1/2 252/1/2 260/1/2
f 259/1/2 256/1/2 260/1/2
f 245/1/2 257/1/2 261/1/2
f 258/1/2 248/1/2 262/1/2
f 249/1/2 259/1/2 263/1/2
f 260/1/2 252/1/2 264/1/2
f 245/1/2 261/1/2 265/1/2
f 261/1/2 262/1/2 265/1/2
f 262/1/2 248/1/2 266/1/2
f 265/1/2 262/1/2 266/1/2
f 263/1/2 264/1/2 267/1/2
f 249/1/2 263/1/2 267/1/2
f 264/1/2 252/1/2 268/1/2
f 267/1/2 264/1/2 268/1/2
f 272/2/3 270/2/3 269/2/3
f 272/1/3 271/1/3 270/1/3
f 273/1/3 271/1/3 272/1/3
f 274/1/3 271/1/3 273/1/3
f 275/1/3 271/1/3 274/1/3
f 276/2/3 272/2/3 269/2/3
f 277/1/3 274/1/3 273/1/3
f 278/1/3 274/1/3 277/1/3
f 279/1/3 271/1/3 275/1/3
f 280/2/3 276/2/3 269/2/3
f 281/1/3 278/1/3 277/1/3
f 281/2/3 276/2/3 280/2/3
f 281/1/3 279/1/3 278/1/3
f 281/1/3 277/1/3 276/1/3
f 282/1/3 271/1/3 279/1/3
f 282/1/3 279/1/3 281/1/3
f 286/2/3 284/2/3 283/2/3
f 286/1/3 285/1/3 284/1/3
f 287/1/3 285/1/3 286/1/3
f 288/1/3 285/1/3 287/1/3
f 289/1/3 285/1/3 288/1/3
f 290/2/3 286/2/3 283/2/3
f 291/1/3 288/1/3 287/1/3
f 292/1/3 288/1/3 291/1/3
f 293/1/3 285/1/3 289/1/3
f 294/2/3 290/2/3 283/2/3
f 295/1/3 292/1/3 291/1/3
f 295/2/3 290/2/3 294/2/3
f 295/1/3 293/1/3 292/1/3
f 295/1/3 291/1/3 290/1/3
f 296/1/3 285/1/3 293/1/3
f 296/1/3 293/1/3 295/1/3
f 302/1/3 298/1/3 297/1/3
f 303/2/3 299/2/3 298/2/3
f 303/1/3 298/1/3 302/1/3
f 304/2/3 299/2/3 303/2/3
f 305/2/3 301/2/3 300/2/3
f 306/2/3 301/2/3 305/2/3
f 312/2/3 308/2/3 307/2/3
f 313/2/3 308/2/3 312/2/3
f 314/2/3 310/2/3 309/2/3
f 315/1/3 311/1/3 310/1/3
f 315/2/3 310/2/3 314/2/3
f 316/1/3 311/1/3 315/1/3
f 322/1/3 318/1/3 317/1/3
f 323/2/3 319/2/3 318/2/3
f 323/1/3 318/1/3 322/1/3
f 324/2/3 319/2/3 323/2/3
f 325/2/3 321/2/3 320/2/3
f 326/2/3 321/2/3 325/2/3
f 331/2/3 330/2/3 329/2/3
f 332/2/3 330/2/3 331/2/3
f 333/2/3 328/2/3 327/2/3
f 334/2/3 328/2/3 333/2/3
f 339/1/3 336/1/3 335/1/3
f 340/1/3 336/1/3 339/1/3
f 341/1/3 336/1/3 340/1/3
f 342/1/3 338/1/3 337/1/3
f 343/1/3 338/1/3 342/1/3
f 349/1/3 345/1/3 344/1/3
f 349/1/3 346/1/3 345/1/3
f 350/1/3 346/1/3 349/1/3
f 351/1/3 348/1/3 347/1/3
f 352/1/3 348/1/3 351/1/3
f 356/1/3 355/1/3 354/1/3
f 357/1/3 355/1/3 356/1/3
f 358/1/3 355/1/3 357/1/3
f 359/1/3 355/1/3 358/1/3
f 360/1/3 355/1/3 359/1/3
f 361/1/3 359/1/3 358/1/3
f 362/1/3 359/1/3 361/1/3
f 363/2/3 354/2/3 353/2/3
f 364/1/3 356/1/3 354/1/3
f 364/2/3 354/2/3 363/2/3
f 365/1/3 356/1/3 364/1/3
f 371/1/3 368/1/3 367/1/3
f 373/1/3 370/1/3 369/1/3
f 374/1/3 370/1/3 373/1/3
f 376/2/3 367/2/3 366/2/3
f 377/1/3 374/1/3 373/1/3
f 377/2/3 367/2/3 376/2/3
f 377/1/3 372/1/3 371/1/3
f 377/1/3 373/1/3 372/1/3
f 377/1/3 375/1/3 374/1/3
f 377/1/3 371/1/3 367/1/3
f 378/1/3 375/1/3 377/1/3
f 383/1/3 380/1/3 379/1/3
f 384/1/3 380/1/3 383/1/3
f 385/1/3 380/1/3 384/1/3
f 386/1/3 382/1/3 381/1/3
f 387/1/3 382/1/3 386/1/3
f 393/1/3 389/1/3 388/1/3
f 393/1/3 390/1/3 389/1/3
f 394/1/3 390/1/3 393/1/3
f 395/1/3 392/1/3 391/1/3
f 396/1/3 392/1/3 395/1/3
f 397/1/4 398/1/4 401/1/4
f 401/1/4 398/1/4 402/1/4
f 402/1/4 398/1/4 403/1/4
f 399/1/4 400/1/4 404/1/4
f 404/1/4 400/1/4 405/1/4
f 406/1/4 407/1/4 411/1/4
f 407/1/4 408/1/4 411/1/4
f 411/1/4 408/1/4 412/1/4
f 409/1/4 410/1/4 413/1/4
f 413/1/4 410/1/4 414/1/4
f 416/1/4 417/1/4 418/1/4
f 418/1/4 417/1/4 419/1/4
f 419/1/4 417/1/4 420/1/4
f 420/1/4 417/1/4 421/1/4
f 421/1/4 417/1/4 422/1/4
f 420/1/4 421/1/4 423/1/4
f 423/1/4 421/1/4 424/1/4
f 415/2/4 416/2/4 425/2/4
f 416/1/4 418/1/4 426/1/4
f 425/2/4 416/2/4 426/2/4
f 426/1/4 418/1/4 427/1/4
f 429/1/4 430/1/4 433/1/4
f 431/1/4 432/1/4 435/1/4
f 435/1/4 432/1/4 436/1/4
f 428/2/4 429/2/4 438/2/4
f 435/1/4 436/1/4 439/1/4
f 438/2/4 429/2/4 439/2/4
f 433/1/4 434/1/4 439/1/4
f 434/1/4 435/1/4 439/1/4
f 436/1/4 437/1/4 439/1/4
f 429/1/4 433/1/4 439/1/4
f 439/1/4 437/1/4 440/1/4
f 441/1/4 442/1/4 445/1/4
f 445/1/4 442/1/4 446/1/4
f 446/1/4 442/1/4 447/1/4
f 443/1/4 444/1/4 448/1/4
f 448/1/4 444/1/4 449/1/4
f 450/1/4 451/1/4 455/1/4
f 451/1/4 452/1/4 455/1/4
f 455/1/4 452/1/4 456/1/4
f 453/1/4 454/1/4 457/1/4
f 457/1/4 454/1/4 458/1/4
f 461/2/4 462/2/4 463/2/4
f 463/2/4 462/2/4 464/2/4
f 459/2/4 460/2/4 465/2/4
f 465/2/4 460/2/4 466/2/4
f 467/1/4 468/1/4 472/1/4
f 468/2/4 469/2/4 473/2/4
f 472/1/4 468/1/4 473/1/4
f 473/2/4 469/2/4 474/2/4
f 470/2/4 471/2/4 475/2/4
f 475/2/4 471/2/4 476/2/4
f 477/2/4 478/2/4 481/2/4
f 481/2/4 478/2/4 482/2/4
f 479/1/4 480/1/4 483/1/4
f 483/1/4 480/1/4 484/1/4
f 485/1/4 486/1/4 490/1/4
f 486/2/4 487/2/4 491/2/4
f 490/1/4 486/1/4 491/1/4
f 491/2/4 487/2/4 492/2/4
f 488/2/4 489/2/4 493/2/4
f 493/2/4 489/2/4 494/2/4
f 495/2/4 496/2/4 498/2/4
f 496/1/4 497/1/4 498/1/4
f 498/1/4 497/1/4 499/1/4
f 499/1/4 497/1/4 500/1/4
f 500/1/4 497/1/4 501/1/4
f 495/2/4 498/2/4 502/2/4
f 499/1/4 500/1/4 503/1/4
f 503/1/4 500/1/4 504/1/4
f 501/1/4 497/1/4 505/1/4
f 495/2/4 502/2/4 506/2/4
f 503/1/4 504/1/4 507/1/4
f 506/2/4 502/2/4 507/2/4
f 504/1/4 505/1/4 507/1/4
f 502/1/4 503/1/4 507/1/4
f 505/1/4 497/1/4 508/1/4
f 507/1/4 505/1/4 508/1/4
f 509/2/4 510/2/4 512/2/4
f 510/1/4 511/1/4 512/1/4
f 512/1/4 511/1/4 513/1/4
f 513/1/4 511/1/4 514/1/4
f 514/1/4 511/1/4 515/1/4
f 509/2/4 512/2/4 516/2/4
f 513/1/4 514/1/4 517/1/4
f 517/1/4 514/1/4 518/1/4
f 515/1/4 511/1/4 519/1/4
f 509/2/4 516/2/4 520/2/4
f 517/1/4 518/1/4 521/1/4
f 520/2/4 516/2/4 521/2/4
f 518/1/4 519/1/4 521/1/4
f 516/1/4 517/1/4 521/1/4
f 519/1/4 511/1/4 522/1/4
f 521/1/4 519/1/4 522/1/4
f 527/2/5 524/2/5 523/2/5
f 528/2/5 524/2/5 527/2/5
f 529/2/5 526/2/5 525/2/5
f 530/2/5 526/2/5 529/2/5
f 535/2/5 532/2/5 531/2/5
f 536/2/5 532/2/5 535/2/5
f 537/2/5 534/2/5 533/2/5
f 538/2/5 534/2/5 537/2/5
f 543/2/5 540/2/5 539/2/5
f 544/2/5 540/2/5 543/2/5
f 545/2/5 542/2/5 541/2/5
f 546/2/5 542/2/5 545/2/5
f 549/2/5 548/2/5 547/2/5
f 550/2/5 548/2/5 549/2/5
f 556/1/5 552/1/5 551/1/5
f 557/1/5 552/1/5 556/1/5
f 558/1/5 554/1/5 553/1/5
f 559/1/5 554/1/5 558/1/5
f 563/2/5 562/2/5 561/2/5
f 564/2/5 562/2/5 563/2/5
f 565/1/5 556/1/5 555/1/5
f 566/1/5 556/1/5 565/1/5
f 567/1/5 560/1/5 559/1/5
f 568/1/5 560/1/5 567/1/5
f 569/1/5 564/1/5 563/1/5
f 570/1/5 564/1/5 569/1/5
f 571/2/5 570/2/5 569/2/5
f 572/2/5 570/2/5 571/2/5
f 577/1/5 572/1/5 571/1/5
f 578/1/5 572/1/5 577/1/5
f 579/2/5 578/2/5 577/2/5
f 580/2/5 578/2/5 579/2/5
f 581/1/5 574/1/5 573/1/5
f 582/1/5 574/1/5 581/1/5
f 585/1/5 576/1/5 575/1/5
f 586/1/5 576/1/5 585/1/5
f 587/1/5 583/1/5 582/1/5
f 588/1/5 583/1/5 587/1/5
f 589/1/5 585/1/5 584/1/5
f 590/1/5 585/1/5 589/1/5
f 593/2/5 592/2/5 591/2/5
f 594/2/5 592/2/5 593/2/5
f 599/1/5 596/1/5 595/1/5
f 600/1/5 596/1/5 599/1/5
f 601/1/5 598/1/5 597/1/5
f 602/1/5 598/1/5 601/1/5
f 605/1/5 604/1/5 603/1/5
f 606/1/5 604/1/5 605/1/5
f 612/1/5 608/1/5 607/1/5
f 613/1/5 608/1/5 612/1/5
f 614/1/5 610/1/5 609/1/5
f 615/1/5 610/1/5 614/1/5
f 617/1/5 612/1/5 611/1/5
f 618/1/5 612/1/5 617/1/5
f 619/1/5 616/1/5 615/1/5
f 620/1/5 616/1/5 619/1/5
f 625/1/5 622/1/5 621/1/5
f 626/1/5 622/1/5 625/1/5
f 629/1/5 624/1/5 623/1/5
f 630/1/5 624/1/5 629/1/5
f 631/1/5 627/1/5 626/1/5
f 632/1/5 627/1/5 631/1/5
f 633/1/5 629/1/5 628/1/5
f 634/1/5 629/1/5 633/1/5
f 635/2/6 636/2/6 640/2/6
f 640/2/6 636/2/6 641/2/6
f 637/2/6 638/2/6 642/2/6
f 642/2/6 638/2/6 643/2/6
f 639/2/6 640/2/6 645/2/6
f 645/2/6 640/2/6 646/2/6
f 643/2/6 644/2/6 647/2/6
f 647/2/6 644/2/6 648/2/6
f 649/2/6 650/2/6 653/2/6
f 653/2/6 650/2/6 654/2/6
f 651/2/6 652/2/6 657/2/6
f 657/2/6 652/2/6 658/2/6
f 654/2/6 655/2/6 659/2/6
f 659/2/6 655/2/6 660/2/6
f 656/2/6 657/2/6 661/2/6
f 661/2/6 657/2/6 662/2/6
f 663/2/6 664/2/6 665/2/6
f 665/2/6 664/2/6 666/2/6
f 667/1/6 668/1/6 671/1/6
f 671/1/6 668/1/6 672/1/6
f 669/1/6 670/1/6 673/1/6
f 673/1/6 670/1/6 674/1/6
f 675/1/6 676/1/6 680/1/6
f 680/1/6 676/1/6 681/1/6
f 677/1/6 678/1/6 682/1/6
f 682/1/6 678/1/6 683/1/6
f 679/1/6 680/1/6 685/1/6
f 685/1/6 680/1/6 686/1/6
f 683/1/6 684/1/6 687/1/6
f 687/1/6 684/1/6 688/1/6
f 689/1/6 690/1/6 693/1/6
f 693/1/6 690/1/6 694/1/6
f 691/1/6 692/1/6 697/1/6
f 697/1/6 692/1/6 698/1/6
f 694/1/6 695/1/6 699/1/6
f 699/1/6 695/1/6 700/1/6
f 696/1/6 697/1/6 701/1/6
f 701/1/6 697/1/6 702/1/6
f 703/1/6 704/1/6 707/1/6
f 705/1/6 706/1/6 708/1/6
f 703/1/6 707/1/6 709/1/6
f 707/1/6 708/1/6 709/1/6
f 708/1/6 706/1/6 710/1/6
f 709/1/6 708/1/6 710/1/6
f 703/1/6 709/1/6 711/1/6
f 711/1/6 709/1/6 712/1/6
f 710/1/6 706/1/6 713/1/6
f 713/1/6 706/1/6 714/1/6
f 712/1/6 709/1/6 716/1/6
f 710/1/6 713/1/6 717/1/6
f 715/1/6 716/1/6 719/1/6
f 716/1/6 709/1/6 719/1/6
f 717/1/6 718/1/6 720/1/6
f 710/1/6 717/1/6 720/1/6
f 719/1/6 720/1/6 721/1/6
f 721/1/6 720/1/6 722/1/6
f 715/1/6 719/1/6 723/1/6
f 719/1/6 721/1/6 723/1/6
f 723/1/6 721/1/6 724/1/6
f 722/1/6 720/1/6 725/1/6
f 720/1/6 718/1/6 726/1/6
f 725/1/6 720/1/6 726/1/6
f 727/2/6 728/2/6 729/2/6
f 729/2/6 728/2/6 730/2/6
