# MagicaVoxel @ Ephtracy

# group
g quadro2

# material
mtllib quadro2.mtl
usemtl palette

# normals
vn -1 0 0
vn 1 0 0
vn 0 0 1
vn 0 0 -1
vn 0 -1 0
vn 0 1 0

# texcoords
vt 0.369141 0.5
vt 0.373047 0.5
vt 0.501953 0.5
vt 0.505859 0.5
vt 0.509766 0.5
vt 0.529297 0.5
vt 0.541016 0.5

# verts
v -7 0 1
v -7 0 -1
v -7 19 1
v -7 19 -1
v 6 1 1
v 6 1 -0
v 6 4 -0
v 6 9 -0
v 6 12 -0
v 6 13 -0
v 6 18 1
v 6 18 -0
v -6 1 1
v -6 1 -0
v -6 14 -0
v -6 18 1
v -6 18 -0
v 7 0 1
v 7 0 -1
v 7 19 1
v 7 19 -1
v -7 0 1
v -7 19 1
v -6 1 1
v -6 18 1
v 6 1 1
v 6 18 1
v 7 0 1
v 7 19 1
v -6 1 -0
v -6 14 -0
v -6 18 -0
v -5 5 -0
v -5 6 -0
v -5 13 -0
v -5 14 -0
v -5 18 -0
v -4 2 -0
v -4 3 -0
v -4 5 -0
v -4 6 -0
v -4 7 -0
v -4 9 -0
v -3 1 -0
v -3 2 -0
v -3 5 -0
v -3 6 -0
v -3 9 -0
v -3 12 -0
v -3 17 -0
v -3 18 -0
v -2 1 -0
v -2 3 -0
v -2 4 -0
v -2 7 -0
v -2 9 -0
v -2 11 -0
v -2 16 -0
v -2 17 -0
v -1 2 -0
v -1 3 -0
v -1 4 -0
v -1 5 -0
v -1 6 -0
v -1 7 -0
v -1 12 -0
v -1 13 -0
v -1 14 -0
v -1 16 -0
v 0 2 -0
v 0 3 -0
v 0 8 -0
v 0 9 -0
v 0 11 -0
v 0 13 -0
v 0 14 -0
v 1 8 -0
v 1 9 -0
v 1 16 -0
v 1 18 -0
v 3 3 -0
v 3 5 -0
v 3 6 -0
v 3 11 -0
v 3 16 -0
v 3 17 -0
v 4 1 -0
v 4 5 -0
v 4 8 -0
v 4 9 -0
v 4 11 -0
v 4 13 -0
v 4 16 -0
v 5 4 -0
v 5 5 -0
v 5 8 -0
v 5 9 -0
v 5 12 -0
v 5 16 -0
v 5 17 -0
v 6 1 -0
v 6 4 -0
v 6 9 -0
v 6 12 -0
v 6 13 -0
v 6 18 -0
v -7 0 -1
v -7 19 -1
v -6 1 -1
v -6 14 -1
v -6 18 -1
v -5 5 -1
v -5 6 -1
v -5 13 -1
v -5 14 -1
v -5 18 -1
v -4 2 -1
v -4 3 -1
v -4 5 -1
v -4 6 -1
v -4 7 -1
v -4 9 -1
v -3 1 -1
v -3 2 -1
v -3 5 -1
v -3 6 -1
v -3 9 -1
v -3 12 -1
v -3 17 -1
v -3 18 -1
v -2 1 -1
v -2 3 -1
v -2 4 -1
v -2 7 -1
v -2 9 -1
v -2 11 -1
v -2 16 -1
v -2 17 -1
v -1 2 -1
v -1 3 -1
v -1 4 -1
v -1 5 -1
v -1 6 -1
v -1 7 -1
v -1 12 -1
v -1 13 -1
v -1 14 -1
v -1 16 -1
v 0 2 -1
v 0 3 -1
v 0 8 -1
v 0 9 -1
v 0 11 -1
v 0 13 -1
v 0 14 -1
v 1 8 -1
v 1 9 -1
v 1 16 -1
v 1 18 -1
v 3 3 -1
v 3 5 -1
v 3 6 -1
v 3 11 -1
v 3 16 -1
v 3 17 -1
v 4 1 -1
v 4 5 -1
v 4 8 -1
v 4 9 -1
v 4 11 -1
v 4 13 -1
v 4 16 -1
v 5 4 -1
v 5 5 -1
v 5 8 -1
v 5 9 -1
v 5 12 -1
v 5 16 -1
v 5 17 -1
v 6 1 -1
v 6 4 -1
v 6 9 -1
v 6 12 -1
v 6 13 -1
v 6 18 -1
v 7 0 -1
v 7 19 -1
v -7 0 1
v 7 0 1
v -7 0 -1
v 7 0 -1
v -6 18 1
v 6 18 1
v -6 18 -0
v -5 18 -0
v -3 18 -0
v 1 18 -0
v 6 18 -0
v -6 1 1
v 6 1 1
v -6 1 -0
v -3 1 -0
v -2 1 -0
v 4 1 -0
v 6 1 -0
v -7 19 1
v 7 19 1
v -7 19 -1
v 7 19 -1

# faces
f 3/7/1 2/7/1 1/7/1
f 4/7/1 2/7/1 3/7/1
f 7/7/1 6/7/1 5/7/1
f 8/7/1 7/7/1 5/7/1
f 9/7/1 8/7/1 5/7/1
f 10/7/1 9/7/1 5/7/1
f 11/7/1 10/7/1 5/7/1
f 12/7/1 10/7/1 11/7/1
f 13/7/2 14/7/2 15/7/2
f 13/7/2 15/7/2 16/7/2
f 16/7/2 15/7/2 17/7/2
f 18/7/2 19/7/2 20/7/2
f 20/7/2 19/7/2 21/7/2
f 24/7/3 23/7/3 22/7/3
f 25/7/3 23/7/3 24/7/3
f 26/7/3 24/7/3 22/7/3
f 27/7/3 23/7/3 25/7/3
f 28/7/3 26/7/3 22/7/3
f 28/7/3 27/7/3 26/7/3
f 29/7/3 23/7/3 27/7/3
f 29/7/3 27/7/3 28/7/3
f 33/5/3 31/5/3 30/5/3
f 34/5/3 31/5/3 33/5/3
f 35/5/3 31/5/3 34/5/3
f 36/1/3 32/1/3 31/1/3
f 36/5/3 31/5/3 35/5/3
f 37/1/3 32/1/3 36/1/3
f 38/5/3 33/5/3 30/5/3
f 39/5/3 33/5/3 38/5/3
f 40/4/3 34/4/3 33/4/3
f 40/5/3 33/5/3 39/5/3
f 41/5/3 35/5/3 34/5/3
f 41/4/3 34/4/3 40/4/3
f 42/5/3 35/5/3 41/5/3
f 43/5/3 35/5/3 42/5/3
f 44/5/3 38/5/3 30/5/3
f 45/4/3 39/4/3 38/4/3
f 45/5/3 38/5/3 44/5/3
f 46/1/3 40/1/3 39/1/3
f 46/4/3 41/4/3 40/4/3
f 47/1/3 42/1/3 41/1/3
f 47/4/3 41/4/3 46/4/3
f 48/5/3 35/5/3 43/5/3
f 48/4/3 43/4/3 42/4/3
f 49/5/3 35/5/3 48/5/3
f 50/2/3 37/2/3 36/2/3
f 51/2/3 37/2/3 50/2/3
f 52/4/3 45/4/3 44/4/3
f 53/4/3 39/4/3 45/4/3
f 53/4/3 45/4/3 52/4/3
f 53/1/3 46/1/3 39/1/3
f 54/1/3 46/1/3 53/1/3
f 55/1/3 42/1/3 47/1/3
f 55/4/3 48/4/3 42/4/3
f 56/1/3 49/1/3 48/1/3
f 56/4/3 48/4/3 55/4/3
f 57/1/3 49/1/3 56/1/3
f 58/2/3 50/2/3 36/2/3
f 59/1/3 51/1/3 50/1/3
f 59/2/3 50/2/3 58/2/3
f 60/1/3 53/1/3 52/1/3
f 61/2/3 54/2/3 53/2/3
f 61/1/3 53/1/3 60/1/3
f 62/1/3 46/1/3 54/1/3
f 62/2/3 54/2/3 61/2/3
f 63/2/3 47/2/3 46/2/3
f 63/1/3 46/1/3 62/1/3
f 64/1/3 55/1/3 47/1/3
f 64/2/3 47/2/3 63/2/3
f 65/3/3 56/3/3 55/3/3
f 65/1/3 55/1/3 64/1/3
f 66/5/3 35/5/3 49/5/3
f 66/1/3 49/1/3 57/1/3
f 67/1/3 36/1/3 35/1/3
f 67/5/3 35/5/3 66/5/3
f 68/2/3 58/2/3 36/2/3
f 68/1/3 36/1/3 67/1/3
f 69/1/3 59/1/3 58/1/3
f 69/2/3 58/2/3 68/2/3
f 70/2/3 61/2/3 60/2/3
f 70/2/3 62/2/3 61/2/3
f 70/1/3 60/1/3 52/1/3
f 70/2/3 63/2/3 62/2/3
f 70/2/3 64/2/3 63/2/3
f 71/2/3 64/2/3 70/2/3
f 72/3/3 56/3/3 65/3/3
f 72/3/3 65/3/3 64/3/3
f 73/6/3 57/6/3 56/6/3
f 73/3/3 56/3/3 72/3/3
f 74/1/3 66/1/3 57/1/3
f 74/6/3 57/6/3 73/6/3
f 74/1/3 67/1/3 66/1/3
f 75/5/3 68/5/3 67/5/3
f 75/1/3 67/1/3 74/1/3
f 76/1/3 69/1/3 68/1/3
f 76/5/3 68/5/3 75/5/3
f 77/6/3 73/6/3 72/6/3
f 77/3/3 72/3/3 64/3/3
f 78/1/3 75/1/3 74/1/3
f 78/6/3 73/6/3 77/6/3
f 78/1/3 74/1/3 73/1/3
f 78/1/3 76/1/3 75/1/3
f 79/1/3 69/1/3 76/1/3
f 79/1/3 76/1/3 78/1/3
f 79/1/3 59/1/3 69/1/3
f 80/1/3 51/1/3 59/1/3
f 80/1/3 59/1/3 79/1/3
f 81/2/3 64/2/3 71/2/3
f 81/1/3 71/1/3 70/1/3
f 82/2/3 64/2/3 81/2/3
f 83/3/3 78/3/3 77/3/3
f 83/2/3 64/2/3 82/2/3
f 83/3/3 77/3/3 64/3/3
f 84/6/3 79/6/3 78/6/3
f 85/4/3 80/4/3 79/4/3
f 85/6/3 79/6/3 84/6/3
f 86/4/3 80/4/3 85/4/3
f 87/1/3 82/1/3 81/1/3
f 87/1/3 70/1/3 52/1/3
f 87/1/3 81/1/3 70/1/3
f 88/3/3 83/3/3 82/3/3
f 88/1/3 82/1/3 87/1/3
f 89/3/3 78/3/3 83/3/3
f 89/3/3 83/3/3 88/3/3
f 90/6/3 84/6/3 78/6/3
f 90/3/3 78/3/3 89/3/3
f 91/1/3 86/1/3 85/1/3
f 91/6/3 84/6/3 90/6/3
f 91/1/3 85/1/3 84/1/3
f 92/1/3 86/1/3 91/1/3
f 93/1/3 86/1/3 92/1/3
f 94/4/3 88/4/3 87/4/3
f 95/3/3 89/3/3 88/3/3
f 95/4/3 88/4/3 94/4/3
f 96/6/3 90/6/3 89/6/3
f 96/3/3 89/3/3 95/3/3
f 97/1/3 91/1/3 90/1/3
f 97/6/3 90/6/3 96/6/3
f 97/1/3 92/1/3 91/1/3
f 98/1/3 92/1/3 97/1/3
f 99/1/3 86/1/3 93/1/3
f 99/4/3 93/4/3 92/4/3
f 100/4/3 80/4/3 86/4/3
f 100/1/3 86/1/3 99/1/3
f 101/4/3 94/4/3 87/4/3
f 102/3/3 95/3/3 94/3/3
f 102/4/3 94/4/3 101/4/3
f 102/3/3 96/3/3 95/3/3
f 102/3/3 97/3/3 96/3/3
f 103/6/3 98/6/3 97/6/3
f 103/3/3 97/3/3 102/3/3
f 104/1/3 92/1/3 98/1/3
f 104/6/3 98/6/3 103/6/3
f 105/4/3 99/4/3 92/4/3
f 105/1/3 92/1/3 104/1/3
f 105/4/3 100/4/3 99/4/3
f 106/4/3 80/4/3 100/4/3
f 106/4/3 100/4/3 105/4/3
f 107/7/4 108/7/4 109/7/4
f 109/7/4 108/7/4 110/7/4
f 110/7/4 108/7/4 111/7/4
f 109/5/4 110/5/4 112/5/4
f 112/5/4 110/5/4 113/5/4
f 113/5/4 110/5/4 114/5/4
f 110/1/4 111/1/4 115/1/4
f 114/5/4 110/5/4 115/5/4
f 111/7/4 108/7/4 116/7/4
f 115/1/4 111/1/4 116/1/4
f 109/5/4 112/5/4 117/5/4
f 117/5/4 112/5/4 118/5/4
f 112/4/4 113/4/4 119/4/4
f 118/5/4 112/5/4 119/5/4
f 113/5/4 114/5/4 120/5/4
f 119/4/4 113/4/4 120/4/4
f 120/5/4 114/5/4 121/5/4
f 121/5/4 114/5/4 122/5/4
f 107/7/4 109/7/4 123/7/4
f 109/5/4 117/5/4 123/5/4
f 117/4/4 118/4/4 124/4/4
f 123/5/4 117/5/4 124/5/4
f 118/1/4 119/1/4 125/1/4
f 119/4/4 120/4/4 125/4/4
f 120/1/4 121/1/4 126/1/4
f 125/4/4 120/4/4 126/4/4
f 122/5/4 114/5/4 127/5/4
f 121/4/4 122/4/4 127/4/4
f 127/5/4 114/5/4 128/5/4
f 115/2/4 116/2/4 129/2/4
f 116/7/4 108/7/4 130/7/4
f 129/2/4 116/2/4 130/2/4
f 107/7/4 123/7/4 131/7/4
f 123/4/4 124/4/4 131/4/4
f 124/4/4 118/4/4 132/4/4
f 131/4/4 124/4/4 132/4/4
f 118/1/4 125/1/4 132/1/4
f 132/1/4 125/1/4 133/1/4
f 126/1/4 121/1/4 134/1/4
f 121/4/4 127/4/4 134/4/4
f 127/1/4 128/1/4 135/1/4
f 134/4/4 127/4/4 135/4/4
f 135/1/4 128/1/4 136/1/4
f 115/2/4 129/2/4 137/2/4
f 129/1/4 130/1/4 138/1/4
f 137/2/4 129/2/4 138/2/4
f 131/1/4 132/1/4 139/1/4
f 132/2/4 133/2/4 140/2/4
f 139/1/4 132/1/4 140/1/4
f 133/1/4 125/1/4 141/1/4
f 140/2/4 133/2/4 141/2/4
f 125/2/4 126/2/4 142/2/4
f 141/1/4 125/1/4 142/1/4
f 126/1/4 134/1/4 143/1/4
f 142/2/4 126/2/4 143/2/4
f 134/3/4 135/3/4 144/3/4
f 143/1/4 134/1/4 144/1/4
f 136/1/4 128/1/4 145/1/4
f 128/5/4 114/5/4 145/5/4
f 114/1/4 115/1/4 146/1/4
f 145/5/4 114/5/4 146/5/4
f 115/2/4 137/2/4 147/2/4
f 146/1/4 115/1/4 147/1/4
f 137/1/4 138/1/4 148/1/4
f 147/2/4 137/2/4 148/2/4
f 139/2/4 140/2/4 149/2/4
f 140/2/4 141/2/4 149/2/4
f 141/2/4 142/2/4 149/2/4
f 131/1/4 139/1/4 149/1/4
f 142/2/4 143/2/4 149/2/4
f 149/2/4 143/2/4 150/2/4
f 144/3/4 135/3/4 151/3/4
f 143/3/4 144/3/4 151/3/4
f 135/6/4 136/6/4 152/6/4
f 151/3/4 135/3/4 152/3/4
f 136/1/4 145/1/4 153/1/4
f 152/6/4 136/6/4 153/6/4
f 145/1/4 146/1/4 153/1/4
f 146/5/4 147/5/4 154/5/4
f 153/1/4 146/1/4 154/1/4
f 147/1/4 148/1/4 155/1/4
f 154/5/4 147/5/4 155/5/4
f 151/6/4 152/6/4 156/6/4
f 143/3/4 151/3/4 156/3/4
f 153/1/4 154/1/4 157/1/4
f 156/6/4 152/6/4 157/6/4
f 152/1/4 153/1/4 157/1/4
f 154/1/4 155/1/4 157/1/4
f 148/1/4 138/1/4 158/1/4
f 157/1/4 155/1/4 158/1/4
f 155/1/4 148/1/4 158/1/4
f 138/1/4 130/1/4 159/1/4
f 158/1/4 138/1/4 159/1/4
f 130/7/4 108/7/4 159/7/4
f 150/2/4 143/2/4 160/2/4
f 149/1/4 150/1/4 160/1/4
f 160/2/4 143/2/4 161/2/4
f 156/3/4 157/3/4 162/3/4
f 161/2/4 143/2/4 162/2/4
f 143/3/4 156/3/4 162/3/4
f 157/6/4 158/6/4 163/6/4
f 158/4/4 159/4/4 164/4/4
f 163/6/4 158/6/4 164/6/4
f 164/4/4 159/4/4 165/4/4
f 160/1/4 161/1/4 166/1/4
f 107/7/4 131/7/4 166/7/4
f 131/1/4 149/1/4 166/1/4
f 149/1/4 160/1/4 166/1/4
f 161/3/4 162/3/4 167/3/4
f 166/1/4 161/1/4 167/1/4
f 162/3/4 157/3/4 168/3/4
f 167/3/4 162/3/4 168/3/4
f 157/6/4 163/6/4 169/6/4
f 168/3/4 157/3/4 169/3/4
f 164/1/4 165/1/4 170/1/4
f 169/6/4 163/6/4 170/6/4
f 163/1/4 164/1/4 170/1/4
f 170/1/4 165/1/4 171/1/4
f 171/1/4 165/1/4 172/1/4
f 166/4/4 167/4/4 173/4/4
f 167/3/4 168/3/4 174/3/4
f 173/4/4 167/4/4 174/4/4
f 168/6/4 169/6/4 175/6/4
f 174/3/4 168/3/4 175/3/4
f 169/1/4 170/1/4 176/1/4
f 175/6/4 169/6/4 176/6/4
f 170/1/4 171/1/4 176/1/4
f 176/1/4 171/1/4 177/1/4
f 172/1/4 165/1/4 178/1/4
f 171/4/4 172/4/4 178/4/4
f 165/4/4 159/4/4 179/4/4
f 178/1/4 165/1/4 179/1/4
f 107/7/4 166/7/4 180/7/4
f 166/4/4 173/4/4 180/4/4
f 173/3/4 174/3/4 181/3/4
f 180/4/4 173/4/4 181/4/4
f 174/3/4 175/3/4 181/3/4
f 175/3/4 176/3/4 181/3/4
f 176/6/4 177/6/4 182/6/4
f 181/3/4 176/3/4 182/3/4
f 177/1/4 171/1/4 183/1/4
f 182/6/4 177/6/4 183/6/4
f 171/4/4 178/4/4 184/4/4
f 183/1/4 171/1/4 184/1/4
f 178/4/4 179/4/4 184/4/4
f 159/7/4 108/7/4 185/7/4
f 184/4/4 179/4/4 185/4/4
f 179/4/4 159/4/4 185/4/4
f 182/7/4 183/7/4 186/7/4
f 181/7/4 182/7/4 186/7/4
f 184/7/4 185/7/4 186/7/4
f 180/7/4 181/7/4 186/7/4
f 183/7/4 184/7/4 186/7/4
f 107/7/4 180/7/4 186/7/4
f 185/7/4 108/7/4 187/7/4
f 186/7/4 185/7/4 187/7/4
f 190/7/5 189/7/5 188/7/5
f 191/7/5 189/7/5 190/7/5
f 194/7/5 193/7/5 192/7/5
f 195/7/5 193/7/5 194/7/5
f 196/7/5 193/7/5 195/7/5
f 197/7/5 193/7/5 196/7/5
f 198/7/5 193/7/5 197/7/5
f 199/7/6 200/7/6 201/7/6
f 201/7/6 200/7/6 202/7/6
f 202/7/6 200/7/6 203/7/6
f 203/7/6 200/7/6 204/7/6
f 204/7/6 200/7/6 205/7/6
f 206/7/6 207/7/6 208/7/6
f 208/7/6 207/7/6 209/7/6
